<?xml version="1.0" encoding="UTF-8"?>
<svg width="30px" height="30px" viewBox="0 0 30 30" version="1.1" xmlns="http://www.w3.org/2000/svg" xmlns:xlink="http://www.w3.org/1999/xlink">
    <!-- Generator: Sketch 59.1 (86144) - https://sketch.com -->
    <title>ic-lottie</title>
    <desc>Created with Sketch.</desc>
    <g id="ic-lottie" stroke="none" stroke-width="1" fill="none" fill-rule="evenodd">
        <g id="lottiefiles_logo" fill-rule="nonzero">
            <rect id="Rectangle" fill="#808080" x="0" y="0" width="29.9085714" height="30" rx="3.415"></rect>
            <path d="M22.76,6.10928571 C22.7591334,5.58482921 23.0745059,5.11157216 23.5588752,4.91047081 C24.0432445,4.70936945 24.6010736,4.82008901 24.9719209,5.19093627 C25.3427681,5.56178352 25.4534877,6.1196126 25.2523863,6.6039819 C25.051285,7.0883512 24.5780279,7.40372378 24.0535714,7.40285714 C22.475,7.16857143 20.2492857,9.48428571 17.7714286,14.2157143 C14.6957143,20.0907143 11.8521429,22.8707143 8.91428571,22.6528571 C9.40065354,22.9615361 9.62465384,23.5543761 9.46393203,24.1075531 C9.30321023,24.6607302 8.79640951,25.0412409 8.22035714,25.0412409 C7.64430477,25.0412409 7.13750405,24.6607302 6.97678225,24.1075531 C6.81606045,23.5543761 7.04006075,22.9615361 7.52642857,22.6528571 C7.57928571,21.9385714 8.19928571,21.4028571 8.91214286,21.4557143 C10.5342857,21.5757143 12.7907143,19.1678571 15.2878571,14.3985714 C18.3814286,8.49 21.2585714,5.78428571 24.2385714,6.22571429 L22.76,6.10928571 Z" id="Path" stroke="#FFFFFF" stroke-width="0.778" fill="#FFFFFF"></path>
        </g>
    </g>
</svg>