<?xml version="1.0" encoding="utf-8"?>
<!-- Generator: Adobe Illustrator 21.1.0, SVG Export Plug-In . SVG Version: 6.00 Build 0)  -->
<svg version="1.1" id="레이어_1" xmlns="http://www.w3.org/2000/svg" xmlns:xlink="http://www.w3.org/1999/xlink" x="0px"
	 y="0px" viewBox="0 0 32 32" style="enable-background:new 0 0 32 32;" xml:space="preserve">
<style type="text/css">
	.st0{fill:#FFFFFF;}
</style>
<g>
	<path class="st0" d="M59,28h-2.18c-0.951-5.666-5.85-10-11.748-10c-5.822,0-10.696,4.119-11.825,9.579c-0.971-0.814-2.079-1.246-3.247-1.246  c-1.167,0-2.274,0.432-3.245,1.245C25.639,22.118,20.825,18,15.072,18C8.756,18,3.565,22.851,3.051,29H1c-0.553,0-1,0.448-1,1  s0.447,1,1,1h2.051c0.514,6.149,5.705,11,12.021,11c6.467,0,11.736-5.207,11.911-11.671c0.853-1.285,1.915-1.996,3.017-1.996  c1.102,0,2.164,0.712,3.017,1.996C33.195,36.793,38.528,42,45.072,42C51.649,42,57,36.617,57,30h2c0.553,0,1-0.448,1-1  S59.553,28,59,28z M15.072,40C9.519,40,5,35.514,5,30s4.519-10,10.072-10C20.64,20,25,24.393,25,30S20.64,40,15.072,40z M45.072,40  C39.519,40,35,35.514,35,30s4.519-10,10.072-10C50.64,20,55,24.393,55,30S50.64,40,45.072,40z" fill="#FFFFFF"/>
	<path class="st0" d="M6.5,13h5c0.3,0,0.5-0.2,0.5-0.5S11.8,12,11.5,12h-5C6.2,12,6,12.2,6,12.5S6.2,13,6.5,13z"/>
	<path class="st0" d="M30,5.3V25c0,0.6-0.4,1-1,1H18.7c-0.5,0-0.9,0.1-1.3,0.3l-0.9,0.5c-0.1,0.1-0.3,0.1-0.4,0.1s-0.3,0-0.4-0.1
		l-0.9-0.5c-0.4-0.2-0.9-0.3-1.3-0.3H3c-0.6,0-1-0.4-1-1V5.3C1.4,5.6,1,6.3,1,7v18c0,1.1,0.9,2,2,2h11v1h4v-1h11c1.1,0,2-0.9,2-2V7
		C31,6.3,30.6,5.6,30,5.3z"/>
	<path class="st0" d="M6.5,15h5c0.3,0,0.5-0.2,0.5-0.5S11.8,14,11.5,14h-5C6.2,14,6,14.2,6,14.5S6.2,15,6.5,15z"/>
	<path class="st0" d="M6.5,17h5c0.3,0,0.5-0.2,0.5-0.5S11.8,16,11.5,16h-5C6.2,16,6,16.2,6,16.5S6.2,17,6.5,17z"/>
</g>
</svg>
