<?xml version="1.0" encoding="UTF-8" standalone="no"?>
<svg width="32px" height="32px" viewBox="0 0 32 32" version="1.1" xmlns="http://www.w3.org/2000/svg" xmlns:xlink="http://www.w3.org/1999/xlink">
    <!-- Generator: Sketch 48.2 (47327) - http://www.bohemiancoding.com/sketch -->
    <title>Artboard</title>
    <desc>Created with Sketch.</desc>
    <defs></defs>
    <g id="Page-1" stroke="none" stroke-width="1" fill="none" fill-rule="evenodd">
        <g id="Artboard">
            <rect id="Rectangle" x="0" y="0" width="32" height="32"></rect>
            <g id="ic_read_32_1" transform="translate(4.000000, 10.000000)" fill="#FFFFFF" fill-rule="nonzero">
                <path d="M23.0000156,4.38069886 L22.8998906,4.38069886 C22.4365781,1.89107386 20.4188438,0.0170795455 18,0.0170795455 C16.2209531,0.0170795455 14.6590312,1.03101136 13.7728125,2.55784091 C13.2555937,2.30522727 12.6874687,2.19855682 12.0002344,2.19855682 C11.3136094,2.19855682 10.74525,2.30558522 10.2276094,2.55850568 C9.3414375,1.03126705 7.77932812,0.0170795455 6.00004687,0.0170795455 C3.58125,0.0170795455 1.56351562,1.891125 1.10015625,4.38069886 L1.00003125,4.38069886 C0.447703125,4.38069886 0,4.86910227 0,5.47159091 C0,6.07407955 0.447703125,6.56248295 0.999984375,6.56248295 L1.10010937,6.56248295 C1.56342187,9.05210795 3.58115625,10.9261022 6,10.9261022 C8.76126563,10.9261022 11.0000156,8.48388068 11.0000156,5.47153977 C11.0000156,5.17817045 10.9785,4.890375 10.937625,4.60953409 C11.2214531,4.43919886 11.5309219,4.38028977 12.0001875,4.38028977 C12.4702969,4.38028977 12.7793438,4.43878977 13.0624688,4.60876704 C13.0215,4.88981249 12.9999844,5.17791477 12.9999844,5.47153977 C12.9999844,8.48382955 15.2386875,10.9261022 18,10.9261022 C20.4187969,10.9261022 22.4365313,9.05205682 22.8998906,6.56248295 L23.0000156,6.56248295 C23.5522969,6.56248295 24,6.07407955 24,5.47159091 C24,4.86910227 23.5522969,4.38069886 23.0000156,4.38069886 Z M6,8.74431818 C4.34329688,8.74431818 3,7.2789034 3,5.47159091 C3,3.6642784 4.34329688,2.19886364 6,2.19886364 C7.65670313,2.19886364 9,3.66427841 9,5.47159091 C9,7.2789034 7.65670312,8.74431818 6,8.74431818 Z M18,8.74431818 C16.3432969,8.74431818 15,7.2789034 15,5.47159091 C15,3.6642784 16.3432969,2.19886364 18,2.19886364 C19.6567031,2.19886364 21,3.66427841 21,5.47159091 C21,7.2789034 19.6567031,8.74431818 18,8.74431818 Z" id="Shape"></path>
            </g>
        </g>
    </g>
</svg>
