<?xml version="1.0" encoding="utf-8"?>
<!-- Generator: Adobe Illustrator 21.1.0, SVG Export Plug-In . SVG Version: 6.00 Build 0)  -->
<svg version="1.1" id="레이어_1" xmlns="http://www.w3.org/2000/svg" xmlns:xlink="http://www.w3.org/1999/xlink" x="0px" width="80px" height="80px" 
	 y="0px" viewBox="0 0 32 32" style="enable-background:new 0 0 32 32;" xml:space="preserve">
<style type="text/css">
	.st0{fill:#FFFFFF;}
</style>
<g>
	<path class="st0" d="M27.6,15 L26.728,15 C26.3476,12.7336 24.388,11 22.0288,11 C19.7,11 17.7504,12.6476 17.2988,14.8316 C16.9104,14.506 16.4672,14.3332 16,14.3332 C15.5332,14.3332 15.0904,14.506 14.702,14.8312 C14.2556,12.6472 12.33,11 10.0288,11 C7.5024,11 5.426,12.9404 5.2204,15.4 L4.4,15.4 C4.1788,15.4 4,15.5792 4,15.8 C4,16.0208 4.1788,16.2 4.4,16.2 L5.2204,16.2 C5.426,18.6596 7.5024,20.6 10.0288,20.6 C12.6156,20.6 14.7232,18.5172 14.7932,15.9316 C15.1344,15.4176 15.5592,15.1332 16,15.1332 C16.4408,15.1332 16.8656,15.418 17.2068,15.9316 C17.278,18.5172 19.4112,20.6 22.0288,20.6 C24.6596,20.6 26.8,18.4468 26.8,15.8 L27.6,15.8 C27.8212,15.8 28,15.6208 28,15.4 C28,15.1792 27.8212,15 27.6,15 Z M10.0288,19.8 C7.8076,19.8 6,18.0056 6,15.8 C6,13.5944 7.8076,11.8 10.0288,11.8 C12.256,11.8 14,13.5572 14,15.8 C14,18.0428 12.256,19.8 10.0288,19.8 Z M22.0288,19.8 C19.8076,19.8 18,18.0056 18,15.8 C18,13.5944 19.8076,11.8 22.0288,11.8 C24.256,11.8 26,13.5572 26,15.8 C26,18.0428 24.256,19.8 22.0288,19.8 Z"/>
</g>
</svg>
