<svg xmlns="http://www.w3.org/2000/svg" viewBox="0 0 3050 50" width="3050" height="50">
  <svg viewBox="0 0 50 50" width="50" height="50">
    <path d="M25.1 12.6c1.8-4.2 5.8-7.1 10.5-7.1 6.3 0 10.8 5.4 11.4 11.8 0 0 .3 1.6-.4 4.5-.9 3.9-3.1 7.4-6 10L25.1 45.6 9.8 31.8c-2.9-2.7-5.1-6.1-6-10-.7-2.9-.4-4.5-.4-4.5C4 10.9 8.6 5.5 14.9 5.5c4.6 0 8.4 2.9 10.2 7.1z" fill="none" stroke="#d75a4a" stroke-width="3" stroke-dasharray="0,136.99693348797132" stroke-dashoffset="136.8600734146" stroke-linejoin="round"/>
  </svg>
  <svg viewBox="0 0 50 50" width="50" height="50" x="50">
    <path d="M25.1 12.6c1.8-4.2 5.8-7.1 10.5-7.1 6.3 0 10.8 5.4 11.4 11.8 0 0 .3 1.6-.4 4.5-.9 3.9-3.1 7.4-6 10L25.1 45.6 9.8 31.8c-2.9-2.7-5.1-6.1-6-10-.7-2.9-.4-4.5-.4-4.5C4 10.9 8.6 5.5 14.9 5.5c4.6 0 8.4 2.9 10.2 7.1z" fill="none" stroke="#d75a4a" stroke-width="3" stroke-dasharray="0.08185614711094065,136.9150773408604" stroke-dashoffset="136.8600734146" stroke-linejoin="round"/>
  </svg>
  <svg viewBox="0 0 50 50" width="50" height="50" x="100">
    <path d="M25.1 12.6c1.8-4.2 5.8-7.1 10.5-7.1 6.3 0 10.8 5.4 11.4 11.8 0 0 .3 1.6-.4 4.5-.9 3.9-3.1 7.4-6 10L25.1 45.6 9.8 31.8c-2.9-2.7-5.1-6.1-6-10-.7-2.9-.4-4.5-.4-4.5C4 10.9 8.6 5.5 14.9 5.5c4.6 0 8.4 2.9 10.2 7.1z" fill="none" stroke="#d75a4a" stroke-width="3" stroke-dasharray="0.3387927834324053,136.65814070453894" stroke-dashoffset="136.8600734146" stroke-linejoin="round"/>
  </svg>
  <svg viewBox="0 0 50 50" width="50" height="50" x="150">
    <path d="M25.1 12.6c1.8-4.2 5.8-7.1 10.5-7.1 6.3 0 10.8 5.4 11.4 11.8 0 0 .3 1.6-.4 4.5-.9 3.9-3.1 7.4-6 10L25.1 45.6 9.8 31.8c-2.9-2.7-5.1-6.1-6-10-.7-2.9-.4-4.5-.4-4.5C4 10.9 8.6 5.5 14.9 5.5c4.6 0 8.4 2.9 10.2 7.1z" fill="none" stroke="#d75a4a" stroke-width="3" stroke-dasharray="0.7897116701167504,136.2072218178546" stroke-dashoffset="136.8600734146" stroke-linejoin="round"/>
  </svg>
  <svg viewBox="0 0 50 50" width="50" height="50" x="200">
    <path d="M25.1 12.6c1.8-4.2 5.8-7.1 10.5-7.1 6.3 0 10.8 5.4 11.4 11.8 0 0 .3 1.6-.4 4.5-.9 3.9-3.1 7.4-6 10L25.1 45.6 9.8 31.8c-2.9-2.7-5.1-6.1-6-10-.7-2.9-.4-4.5-.4-4.5C4 10.9 8.6 5.5 14.9 5.5c4.6 0 8.4 2.9 10.2 7.1z" fill="none" stroke="#d75a4a" stroke-width="3" stroke-dasharray="1.4562944909287796,135.54063899704255" stroke-dashoffset="136.8600734146" stroke-linejoin="round"/>
  </svg>
  <svg viewBox="0 0 50 50" width="50" height="50" x="250">
    <path d="M25.1 12.6c1.8-4.2 5.8-7.1 10.5-7.1 6.3 0 10.8 5.4 11.4 11.8 0 0 .3 1.6-.4 4.5-.9 3.9-3.1 7.4-6 10L25.1 45.6 9.8 31.8c-2.9-2.7-5.1-6.1-6-10-.7-2.9-.4-4.5-.4-4.5C4 10.9 8.6 5.5 14.9 5.5c4.6 0 8.4 2.9 10.2 7.1z" fill="none" stroke="#d75a4a" stroke-width="3" stroke-dasharray="2.3634238427735754,134.63350964519776" stroke-dashoffset="136.8600734146" stroke-linejoin="round"/>
  </svg>
  <svg viewBox="0 0 50 50" width="50" height="50" x="300">
    <path d="M25.1 12.6c1.8-4.2 5.8-7.1 10.5-7.1 6.3 0 10.8 5.4 11.4 11.8 0 0 .3 1.6-.4 4.5-.9 3.9-3.1 7.4-6 10L25.1 45.6 9.8 31.8c-2.9-2.7-5.1-6.1-6-10-.7-2.9-.4-4.5-.4-4.5C4 10.9 8.6 5.5 14.9 5.5c4.6 0 8.4 2.9 10.2 7.1z" fill="none" stroke="#d75a4a" stroke-width="3" stroke-dasharray="3.5396141167605575,133.4573193712108" stroke-dashoffset="136.8600734146" stroke-linejoin="round"/>
  </svg>
  <svg viewBox="0 0 50 50" width="50" height="50" x="350">
    <path d="M25.1 12.6c1.8-4.2 5.8-7.1 10.5-7.1 6.3 0 10.8 5.4 11.4 11.8 0 0 .3 1.6-.4 4.5-.9 3.9-3.1 7.4-6 10L25.1 45.6 9.8 31.8c-2.9-2.7-5.1-6.1-6-10-.7-2.9-.4-4.5-.4-4.5C4 10.9 8.6 5.5 14.9 5.5c4.6 0 8.4 2.9 10.2 7.1z" fill="none" stroke="#d75a4a" stroke-width="3" stroke-dasharray="5.017394929199009,131.97953855877233" stroke-dashoffset="136.8600734146" stroke-linejoin="round"/>
  </svg>
  <svg viewBox="0 0 50 50" width="50" height="50" x="400">
    <path d="M25.1 12.6c1.8-4.2 5.8-7.1 10.5-7.1 6.3 0 10.8 5.4 11.4 11.8 0 0 .3 1.6-.4 4.5-.9 3.9-3.1 7.4-6 10L25.1 45.6 9.8 31.8c-2.9-2.7-5.1-6.1-6-10-.7-2.9-.4-4.5-.4-4.5C4 10.9 8.6 5.5 14.9 5.5c4.6 0 8.4 2.9 10.2 7.1z" fill="none" stroke="#d75a4a" stroke-width="3" stroke-dasharray="6.8335339058294675,130.16339958214186" stroke-dashoffset="136.8600734146" stroke-linejoin="round"/>
  </svg>
  <svg viewBox="0 0 50 50" width="50" height="50" x="450">
    <path d="M25.1 12.6c1.8-4.2 5.8-7.1 10.5-7.1 6.3 0 10.8 5.4 11.4 11.8 0 0 .3 1.6-.4 4.5-.9 3.9-3.1 7.4-6 10L25.1 45.6 9.8 31.8c-2.9-2.7-5.1-6.1-6-10-.7-2.9-.4-4.5-.4-4.5C4 10.9 8.6 5.5 14.9 5.5c4.6 0 8.4 2.9 10.2 7.1z" fill="none" stroke="#d75a4a" stroke-width="3" stroke-dasharray="9.02889061989219,127.96804286807915" stroke-dashoffset="136.8600734146" stroke-linejoin="round"/>
  </svg>
  <svg viewBox="0 0 50 50" width="50" height="50" x="500">
    <path d="M25.1 12.6c1.8-4.2 5.8-7.1 10.5-7.1 6.3 0 10.8 5.4 11.4 11.8 0 0 .3 1.6-.4 4.5-.9 3.9-3.1 7.4-6 10L25.1 45.6 9.8 31.8c-2.9-2.7-5.1-6.1-6-10-.7-2.9-.4-4.5-.4-4.5C4 10.9 8.6 5.5 14.9 5.5c4.6 0 8.4 2.9 10.2 7.1z" fill="none" stroke="#d75a4a" stroke-width="3" stroke-dasharray="11.647542460516991,125.34939102745435" stroke-dashoffset="136.8600734146" stroke-linejoin="round"/>
  </svg>
  <svg viewBox="0 0 50 50" width="50" height="50" x="550">
    <path d="M25.1 12.6c1.8-4.2 5.8-7.1 10.5-7.1 6.3 0 10.8 5.4 11.4 11.8 0 0 .3 1.6-.4 4.5-.9 3.9-3.1 7.4-6 10L25.1 45.6 9.8 31.8c-2.9-2.7-5.1-6.1-6-10-.7-2.9-.4-4.5-.4-4.5C4 10.9 8.6 5.5 14.9 5.5c4.6 0 8.4 2.9 10.2 7.1z" fill="none" stroke="#d75a4a" stroke-width="3" stroke-dasharray="14.734609173551213,122.26232431442013" stroke-dashoffset="136.8600734146" stroke-linejoin="round"/>
  </svg>
  <svg viewBox="0 0 50 50" width="50" height="50" x="600">
    <path d="M25.1 12.6c1.8-4.2 5.8-7.1 10.5-7.1 6.3 0 10.8 5.4 11.4 11.8 0 0 .3 1.6-.4 4.5-.9 3.9-3.1 7.4-6 10L25.1 45.6 9.8 31.8c-2.9-2.7-5.1-6.1-6-10-.7-2.9-.4-4.5-.4-4.5C4 10.9 8.6 5.5 14.9 5.5c4.6 0 8.4 2.9 10.2 7.1z" fill="none" stroke="#d75a4a" stroke-width="3" stroke-dasharray="18.331965470559513,118.66496801741182" stroke-dashoffset="136.8600734146" stroke-linejoin="round"/>
  </svg>
  <svg viewBox="0 0 50 50" width="50" height="50" x="650">
    <path d="M25.1 12.6c1.8-4.2 5.8-7.1 10.5-7.1 6.3 0 10.8 5.4 11.4 11.8 0 0 .3 1.6-.4 4.5-.9 3.9-3.1 7.4-6 10L25.1 45.6 9.8 31.8c-2.9-2.7-5.1-6.1-6-10-.7-2.9-.4-4.5-.4-4.5C4 10.9 8.6 5.5 14.9 5.5c4.6 0 8.4 2.9 10.2 7.1z" fill="none" stroke="#d75a4a" stroke-width="3" stroke-dasharray="22.470937397732264,114.52599609023908" stroke-dashoffset="136.8600734146" stroke-linejoin="round"/>
  </svg>
  <svg viewBox="0 0 50 50" width="50" height="50" x="700">
    <path d="M25.1 12.6c1.8-4.2 5.8-7.1 10.5-7.1 6.3 0 10.8 5.4 11.4 11.8 0 0 .3 1.6-.4 4.5-.9 3.9-3.1 7.4-6 10L25.1 45.6 9.8 31.8c-2.9-2.7-5.1-6.1-6-10-.7-2.9-.4-4.5-.4-4.5C4 10.9 8.6 5.5 14.9 5.5c4.6 0 8.4 2.9 10.2 7.1z" fill="none" stroke="#d75a4a" stroke-width="3" stroke-dasharray="27.161532031608054,109.83540145636327" stroke-dashoffset="136.8600734146" stroke-linejoin="round"/>
  </svg>
  <svg viewBox="0 0 50 50" width="50" height="50" x="750">
    <path d="M25.1 12.6c1.8-4.2 5.8-7.1 10.5-7.1 6.3 0 10.8 5.4 11.4 11.8 0 0 .3 1.6-.4 4.5-.9 3.9-3.1 7.4-6 10L25.1 45.6 9.8 31.8c-2.9-2.7-5.1-6.1-6-10-.7-2.9-.4-4.5-.4-4.5C4 10.9 8.6 5.5 14.9 5.5c4.6 0 8.4 2.9 10.2 7.1z" fill="none" stroke="#d75a4a" stroke-width="3" stroke-dasharray="32.379363522576774,104.61756996539457" stroke-dashoffset="136.8600734146" stroke-linejoin="round"/>
  </svg>
  <svg viewBox="0 0 50 50" width="50" height="50" x="800">
    <path d="M25.1 12.6c1.8-4.2 5.8-7.1 10.5-7.1 6.3 0 10.8 5.4 11.4 11.8 0 0 .3 1.6-.4 4.5-.9 3.9-3.1 7.4-6 10L25.1 45.6 9.8 31.8c-2.9-2.7-5.1-6.1-6-10-.7-2.9-.4-4.5-.4-4.5C4 10.9 8.6 5.5 14.9 5.5c4.6 0 8.4 2.9 10.2 7.1z" fill="none" stroke="#d75a4a" stroke-width="3" stroke-dasharray="38.054427521044694,98.94250596692665" stroke-dashoffset="136.8600734146" stroke-linejoin="round"/>
  </svg>
  <svg viewBox="0 0 50 50" width="50" height="50" x="850">
    <path d="M25.1 12.6c1.8-4.2 5.8-7.1 10.5-7.1 6.3 0 10.8 5.4 11.4 11.8 0 0 .3 1.6-.4 4.5-.9 3.9-3.1 7.4-6 10L25.1 45.6 9.8 31.8c-2.9-2.7-5.1-6.1-6-10-.7-2.9-.4-4.5-.4-4.5C4 10.9 8.6 5.5 14.9 5.5c4.6 0 8.4 2.9 10.2 7.1z" fill="none" stroke="#d75a4a" stroke-width="3" stroke-dasharray="44.06867314408961,92.92826034388173" stroke-dashoffset="136.8600734146" stroke-linejoin="round"/>
  </svg>
  <svg viewBox="0 0 50 50" width="50" height="50" x="900">
    <path d="M25.1 12.6c1.8-4.2 5.8-7.1 10.5-7.1 6.3 0 10.8 5.4 11.4 11.8 0 0 .3 1.6-.4 4.5-.9 3.9-3.1 7.4-6 10L25.1 45.6 9.8 31.8c-2.9-2.7-5.1-6.1-6-10-.7-2.9-.4-4.5-.4-4.5C4 10.9 8.6 5.5 14.9 5.5c4.6 0 8.4 2.9 10.2 7.1z" fill="none" stroke="#d75a4a" stroke-width="3" stroke-dasharray="50.26811760087236,86.72881588709897" stroke-dashoffset="136.8600734146" stroke-linejoin="round"/>
  </svg>
  <svg viewBox="0 0 50 50" width="50" height="50" x="950">
    <path d="M25.1 12.6c1.8-4.2 5.8-7.1 10.5-7.1 6.3 0 10.8 5.4 11.4 11.8 0 0 .3 1.6-.4 4.5-.9 3.9-3.1 7.4-6 10L25.1 45.6 9.8 31.8c-2.9-2.7-5.1-6.1-6-10-.7-2.9-.4-4.5-.4-4.5C4 10.9 8.6 5.5 14.9 5.5c4.6 0 8.4 2.9 10.2 7.1z" fill="none" stroke="#d75a4a" stroke-width="3" stroke-dasharray="56.48783389976954,80.50909958820179" stroke-dashoffset="136.8600734146" stroke-linejoin="round"/>
  </svg>
  <svg viewBox="0 0 50 50" width="50" height="50" x="1000">
    <path d="M25.1 12.6c1.8-4.2 5.8-7.1 10.5-7.1 6.3 0 10.8 5.4 11.4 11.8 0 0 .3 1.6-.4 4.5-.9 3.9-3.1 7.4-6 10L25.1 45.6 9.8 31.8c-2.9-2.7-5.1-6.1-6-10-.7-2.9-.4-4.5-.4-4.5C4 10.9 8.6 5.5 14.9 5.5c4.6 0 8.4 2.9 10.2 7.1z" fill="none" stroke="#d75a4a" stroke-width="3" stroke-dasharray="62.579506680270846,74.4174268077005" stroke-dashoffset="136.8600734146" stroke-linejoin="round"/>
  </svg>
  <svg viewBox="0 0 50 50" width="50" height="50" x="1050">
    <path d="M25.1 12.6c1.8-4.2 5.8-7.1 10.5-7.1 6.3 0 10.8 5.4 11.4 11.8 0 0 .3 1.6-.4 4.5-.9 3.9-3.1 7.4-6 10L25.1 45.6 9.8 31.8c-2.9-2.7-5.1-6.1-6-10-.7-2.9-.4-4.5-.4-4.5C4 10.9 8.6 5.5 14.9 5.5c4.6 0 8.4 2.9 10.2 7.1z" fill="none" stroke="#d75a4a" stroke-width="3" stroke-dasharray="68.43003670727838,68.56689678069296" stroke-dashoffset="136.8600734146" stroke-linejoin="round"/>
  </svg>
  <svg viewBox="0 0 50 50" width="50" height="50" x="1100">
    <path d="M25.1 12.6c1.8-4.2 5.8-7.1 10.5-7.1 6.3 0 10.8 5.4 11.4 11.8 0 0 .3 1.6-.4 4.5-.9 3.9-3.1 7.4-6 10L25.1 45.6 9.8 31.8c-2.9-2.7-5.1-6.1-6-10-.7-2.9-.4-4.5-.4-4.5C4 10.9 8.6 5.5 14.9 5.5c4.6 0 8.4 2.9 10.2 7.1z" fill="none" stroke="#d75a4a" stroke-width="3" stroke-dasharray="73.96676546709051,63.03016802088082" stroke-dashoffset="136.8600734146" stroke-linejoin="round"/>
  </svg>
  <svg viewBox="0 0 50 50" width="50" height="50" x="1150">
    <path d="M25.1 12.6c1.8-4.2 5.8-7.1 10.5-7.1 6.3 0 10.8 5.4 11.4 11.8 0 0 .3 1.6-.4 4.5-.9 3.9-3.1 7.4-6 10L25.1 45.6 9.8 31.8c-2.9-2.7-5.1-6.1-6-10-.7-2.9-.4-4.5-.4-4.5C4 10.9 8.6 5.5 14.9 5.5c4.6 0 8.4 2.9 10.2 7.1z" fill="none" stroke="#d75a4a" stroke-width="3" stroke-dasharray="79.15256294482731,57.844370543144024" stroke-dashoffset="136.8600734146" stroke-linejoin="round"/>
  </svg>
  <svg viewBox="0 0 50 50" width="50" height="50" x="1200">
    <path d="M25.1 12.6c1.8-4.2 5.8-7.1 10.5-7.1 6.3 0 10.8 5.4 11.4 11.8 0 0 .3 1.6-.4 4.5-.9 3.9-3.1 7.4-6 10L25.1 45.6 9.8 31.8c-2.9-2.7-5.1-6.1-6-10-.7-2.9-.4-4.5-.4-4.5C4 10.9 8.6 5.5 14.9 5.5c4.6 0 8.4 2.9 10.2 7.1z" fill="none" stroke="#d75a4a" stroke-width="3" stroke-dasharray="83.97662205404646,53.02031143392488" stroke-dashoffset="136.8600734146" stroke-linejoin="round"/>
  </svg>
  <svg viewBox="0 0 50 50" width="50" height="50" x="1250">
    <path d="M25.1 12.6c1.8-4.2 5.8-7.1 10.5-7.1 6.3 0 10.8 5.4 11.4 11.8 0 0 .3 1.6-.4 4.5-.9 3.9-3.1 7.4-6 10L25.1 45.6 9.8 31.8c-2.9-2.7-5.1-6.1-6-10-.7-2.9-.4-4.5-.4-4.5C4 10.9 8.6 5.5 14.9 5.5c4.6 0 8.4 2.9 10.2 7.1z" fill="none" stroke="#d75a4a" stroke-width="3" stroke-dasharray="88.44529127295458,48.55164221501676" stroke-dashoffset="136.8600734146" stroke-linejoin="round"/>
  </svg>
  <svg viewBox="0 0 50 50" width="50" height="50" x="1300">
    <path d="M25.1 12.6c1.8-4.2 5.8-7.1 10.5-7.1 6.3 0 10.8 5.4 11.4 11.8 0 0 .3 1.6-.4 4.5-.9 3.9-3.1 7.4-6 10L25.1 45.6 9.8 31.8c-2.9-2.7-5.1-6.1-6-10-.7-2.9-.4-4.5-.4-4.5C4 10.9 8.6 5.5 14.9 5.5c4.6 0 8.4 2.9 10.2 7.1z" fill="none" stroke="#d75a4a" stroke-width="3" stroke-dasharray="92.57485454242625,44.42207894554508" stroke-dashoffset="136.8600734146" stroke-linejoin="round"/>
  </svg>
  <svg viewBox="0 0 50 50" width="50" height="50" x="1350">
    <path d="M25.1 12.6c1.8-4.2 5.8-7.1 10.5-7.1 6.3 0 10.8 5.4 11.4 11.8 0 0 .3 1.6-.4 4.5-.9 3.9-3.1 7.4-6 10L25.1 45.6 9.8 31.8c-2.9-2.7-5.1-6.1-6-10-.7-2.9-.4-4.5-.4-4.5C4 10.9 8.6 5.5 14.9 5.5c4.6 0 8.4 2.9 10.2 7.1z" fill="none" stroke="#d75a4a" stroke-width="3" stroke-dasharray="96.38654468502052,40.610388802950816" stroke-dashoffset="136.8600734146" stroke-linejoin="round"/>
  </svg>
  <svg viewBox="0 0 50 50" width="50" height="50" x="1400">
    <path d="M25.1 12.6c1.8-4.2 5.8-7.1 10.5-7.1 6.3 0 10.8 5.4 11.4 11.8 0 0 .3 1.6-.4 4.5-.9 3.9-3.1 7.4-6 10L25.1 45.6 9.8 31.8c-2.9-2.7-5.1-6.1-6-10-.7-2.9-.4-4.5-.4-4.5C4 10.9 8.6 5.5 14.9 5.5c4.6 0 8.4 2.9 10.2 7.1z" fill="none" stroke="#d75a4a" stroke-width="3" stroke-dasharray="99.90339098628276,37.093542501688574" stroke-dashoffset="136.8600734146" stroke-linejoin="round"/>
  </svg>
  <svg viewBox="0 0 50 50" width="50" height="50" x="1450">
    <path d="M25.1 12.6c1.8-4.2 5.8-7.1 10.5-7.1 6.3 0 10.8 5.4 11.4 11.8 0 0 .3 1.6-.4 4.5-.9 3.9-3.1 7.4-6 10L25.1 45.6 9.8 31.8c-2.9-2.7-5.1-6.1-6-10-.7-2.9-.4-4.5-.4-4.5C4 10.9 8.6 5.5 14.9 5.5c4.6 0 8.4 2.9 10.2 7.1z" fill="none" stroke="#d75a4a" stroke-width="3" stroke-dasharray="103.1483659251632,33.84856756280813" stroke-dashoffset="136.8600734146" stroke-linejoin="round"/>
  </svg>
  <svg viewBox="0 0 50 50" width="50" height="50" x="1500">
    <path d="M25.1 12.6c1.8-4.2 5.8-7.1 10.5-7.1 6.3 0 10.8 5.4 11.4 11.8 0 0 .3 1.6-.4 4.5-.9 3.9-3.1 7.4-6 10L25.1 45.6 9.8 31.8c-2.9-2.7-5.1-6.1-6-10-.7-2.9-.4-4.5-.4-4.5C4 10.9 8.6 5.5 14.9 5.5c4.6 0 8.4 2.9 10.2 7.1z" fill="none" stroke="#d75a4a" stroke-width="3" stroke-dasharray="106.14337797685273,30.8535555111186" stroke-dashoffset="136.8600734146" stroke-linejoin="round"/>
  </svg>
  <svg viewBox="0 0 50 50" width="50" height="50" x="1550">
    <path d="M25.1 12.6c1.8-4.2 5.8-7.1 10.5-7.1 6.3 0 10.8 5.4 11.4 11.8 0 0 .3 1.6-.4 4.5-.9 3.9-3.1 7.4-6 10L25.1 45.6 9.8 31.8c-2.9-2.7-5.1-6.1-6-10-.7-2.9-.4-4.5-.4-4.5C4 10.9 8.6 5.5 14.9 5.5c4.6 0 8.4 2.9 10.2 7.1z" fill="none" stroke="#d75a4a" stroke-width="3" stroke-dasharray="108.90878547749259,28.088148010478744" stroke-dashoffset="136.8600734146" stroke-linejoin="round"/>
  </svg>
  <svg viewBox="0 0 50 50" width="50" height="50" x="1600">
    <path d="M25.1 12.6c1.8-4.2 5.8-7.1 10.5-7.1 6.3 0 10.8 5.4 11.4 11.8 0 0 .3 1.6-.4 4.5-.9 3.9-3.1 7.4-6 10L25.1 45.6 9.8 31.8c-2.9-2.7-5.1-6.1-6-10-.7-2.9-.4-4.5-.4-4.5C4 10.9 8.6 5.5 14.9 5.5c4.6 0 8.4 2.9 10.2 7.1z" fill="none" stroke="#d75a4a" stroke-width="3" stroke-dasharray="111.46321729098867,25.533716196982667" stroke-dashoffset="136.8600734146" stroke-linejoin="round"/>
  </svg>
  <svg viewBox="0 0 50 50" width="50" height="50" x="1650">
    <path d="M25.1 12.6c1.8-4.2 5.8-7.1 10.5-7.1 6.3 0 10.8 5.4 11.4 11.8 0 0 .3 1.6-.4 4.5-.9 3.9-3.1 7.4-6 10L25.1 45.6 9.8 31.8c-2.9-2.7-5.1-6.1-6-10-.7-2.9-.4-4.5-.4-4.5C4 10.9 8.6 5.5 14.9 5.5c4.6 0 8.4 2.9 10.2 7.1z" fill="none" stroke="#d75a4a" stroke-width="3" stroke-dasharray="113.82356592234208,23.17336756562925" stroke-dashoffset="136.8600734146" stroke-linejoin="round"/>
  </svg>
  <svg viewBox="0 0 50 50" width="50" height="50" x="1700">
    <path d="M25.1 12.6c1.8-4.2 5.8-7.1 10.5-7.1 6.3 0 10.8 5.4 11.4 11.8 0 0 .3 1.6-.4 4.5-.9 3.9-3.1 7.4-6 10L25.1 45.6 9.8 31.8c-2.9-2.7-5.1-6.1-6-10-.7-2.9-.4-4.5-.4-4.5C4 10.9 8.6 5.5 14.9 5.5c4.6 0 8.4 2.9 10.2 7.1z" fill="none" stroke="#d75a4a" stroke-width="3" stroke-dasharray="116.0050716391983,20.991861848773027" stroke-dashoffset="136.8600734146" stroke-linejoin="round"/>
  </svg>
  <svg viewBox="0 0 50 50" width="50" height="50" x="1750">
    <path d="M25.1 12.6c1.8-4.2 5.8-7.1 10.5-7.1 6.3 0 10.8 5.4 11.4 11.8 0 0 .3 1.6-.4 4.5-.9 3.9-3.1 7.4-6 10L25.1 45.6 9.8 31.8c-2.9-2.7-5.1-6.1-6-10-.7-2.9-.4-4.5-.4-4.5C4 10.9 8.6 5.5 14.9 5.5c4.6 0 8.4 2.9 10.2 7.1z" fill="none" stroke="#d75a4a" stroke-width="3" stroke-dasharray="118.02144958768503,18.975483900286303" stroke-dashoffset="136.8600734146" stroke-linejoin="round"/>
  </svg>
  <svg viewBox="0 0 50 50" width="50" height="50" x="1800">
    <path d="M25.1 12.6c1.8-4.2 5.8-7.1 10.5-7.1 6.3 0 10.8 5.4 11.4 11.8 0 0 .3 1.6-.4 4.5-.9 3.9-3.1 7.4-6 10L25.1 45.6 9.8 31.8c-2.9-2.7-5.1-6.1-6-10-.7-2.9-.4-4.5-.4-4.5C4 10.9 8.6 5.5 14.9 5.5c4.6 0 8.4 2.9 10.2 7.1z" fill="none" stroke="#d75a4a" stroke-width="3" stroke-dasharray="119.88503239650743,17.111901091463903" stroke-dashoffset="136.8600734146" stroke-linejoin="round"/>
  </svg>
  <svg viewBox="0 0 50 50" width="50" height="50" x="1850">
    <path d="M25.1 12.6c1.8-4.2 5.8-7.1 10.5-7.1 6.3 0 10.8 5.4 11.4 11.8 0 0 .3 1.6-.4 4.5-.9 3.9-3.1 7.4-6 10L25.1 45.6 9.8 31.8c-2.9-2.7-5.1-6.1-6-10-.7-2.9-.4-4.5-.4-4.5C4 10.9 8.6 5.5 14.9 5.5c4.6 0 8.4 2.9 10.2 7.1z" fill="none" stroke="#d75a4a" stroke-width="3" stroke-dasharray="121.60691309481243,15.390020393158915" stroke-dashoffset="136.8600734146" stroke-linejoin="round"/>
  </svg>
  <svg viewBox="0 0 50 50" width="50" height="50" x="1900">
    <path d="M25.1 12.6c1.8-4.2 5.8-7.1 10.5-7.1 6.3 0 10.8 5.4 11.4 11.8 0 0 .3 1.6-.4 4.5-.9 3.9-3.1 7.4-6 10L25.1 45.6 9.8 31.8c-2.9-2.7-5.1-6.1-6-10-.7-2.9-.4-4.5-.4-4.5C4 10.9 8.6 5.5 14.9 5.5c4.6 0 8.4 2.9 10.2 7.1z" fill="none" stroke="#d75a4a" stroke-width="3" stroke-dasharray="123.197080459683,13.799853028288348" stroke-dashoffset="136.8600734146" stroke-linejoin="round"/>
  </svg>
  <svg viewBox="0 0 50 50" width="50" height="50" x="1950">
    <path d="M25.1 12.6c1.8-4.2 5.8-7.1 10.5-7.1 6.3 0 10.8 5.4 11.4 11.8 0 0 .3 1.6-.4 4.5-.9 3.9-3.1 7.4-6 10L25.1 45.6 9.8 31.8c-2.9-2.7-5.1-6.1-6-10-.7-2.9-.4-4.5-.4-4.5C4 10.9 8.6 5.5 14.9 5.5c4.6 0 8.4 2.9 10.2 7.1z" fill="none" stroke="#d75a4a" stroke-width="3" stroke-dasharray="124.6645431419183,12.332390346053032" stroke-dashoffset="136.8600734146" stroke-linejoin="round"/>
  </svg>
  <svg viewBox="0 0 50 50" width="50" height="50" x="2000">
    <path d="M25.1 12.6c1.8-4.2 5.8-7.1 10.5-7.1 6.3 0 10.8 5.4 11.4 11.8 0 0 .3 1.6-.4 4.5-.9 3.9-3.1 7.4-6 10L25.1 45.6 9.8 31.8c-2.9-2.7-5.1-6.1-6-10-.7-2.9-.4-4.5-.4-4.5C4 10.9 8.6 5.5 14.9 5.5c4.6 0 8.4 2.9 10.2 7.1z" fill="none" stroke="#d75a4a" stroke-width="3" stroke-dasharray="126.01744131848709,10.979492169484255" stroke-dashoffset="136.8600734146" stroke-linejoin="round"/>
  </svg>
  <svg viewBox="0 0 50 50" width="50" height="50" x="2050">
    <path d="M25.1 12.6c1.8-4.2 5.8-7.1 10.5-7.1 6.3 0 10.8 5.4 11.4 11.8 0 0 .3 1.6-.4 4.5-.9 3.9-3.1 7.4-6 10L25.1 45.6 9.8 31.8c-2.9-2.7-5.1-6.1-6-10-.7-2.9-.4-4.5-.4-4.5C4 10.9 8.6 5.5 14.9 5.5c4.6 0 8.4 2.9 10.2 7.1z" fill="none" stroke="#d75a4a" stroke-width="3" stroke-dasharray="127.26314593190577,9.73378755606557" stroke-dashoffset="136.8600734146" stroke-linejoin="round"/>
  </svg>
  <svg viewBox="0 0 50 50" width="50" height="50" x="2100">
    <path d="M25.1 12.6c1.8-4.2 5.8-7.1 10.5-7.1 6.3 0 10.8 5.4 11.4 11.8 0 0 .3 1.6-.4 4.5-.9 3.9-3.1 7.4-6 10L25.1 45.6 9.8 31.8c-2.9-2.7-5.1-6.1-6-10-.7-2.9-.4-4.5-.4-4.5C4 10.9 8.6 5.5 14.9 5.5c4.6 0 8.4 2.9 10.2 7.1z" fill="none" stroke="#d75a4a" stroke-width="3" stroke-dasharray="128.4083462503116,8.588587237659725" stroke-dashoffset="136.8600734146" stroke-linejoin="round"/>
  </svg>
  <svg viewBox="0 0 50 50" width="50" height="50" x="2150">
    <path d="M25.1 12.6c1.8-4.2 5.8-7.1 10.5-7.1 6.3 0 10.8 5.4 11.4 11.8 0 0 .3 1.6-.4 4.5-.9 3.9-3.1 7.4-6 10L25.1 45.6 9.8 31.8c-2.9-2.7-5.1-6.1-6-10-.7-2.9-.4-4.5-.4-4.5C4 10.9 8.6 5.5 14.9 5.5c4.6 0 8.4 2.9 10.2 7.1z" fill="none" stroke="#d75a4a" stroke-width="3" stroke-dasharray="129.4591267866823,7.537806701289022" stroke-dashoffset="136.8600734146" stroke-linejoin="round"/>
  </svg>
  <svg viewBox="0 0 50 50" width="50" height="50" x="2200">
    <path d="M25.1 12.6c1.8-4.2 5.8-7.1 10.5-7.1 6.3 0 10.8 5.4 11.4 11.8 0 0 .3 1.6-.4 4.5-.9 3.9-3.1 7.4-6 10L25.1 45.6 9.8 31.8c-2.9-2.7-5.1-6.1-6-10-.7-2.9-.4-4.5-.4-4.5C4 10.9 8.6 5.5 14.9 5.5c4.6 0 8.4 2.9 10.2 7.1z" fill="none" stroke="#d75a4a" stroke-width="3" stroke-dasharray="130.4210347121423,6.575898775829025" stroke-dashoffset="136.8600734146" stroke-linejoin="round"/>
  </svg>
  <svg viewBox="0 0 50 50" width="50" height="50" x="2250">
    <path d="M25.1 12.6c1.8-4.2 5.8-7.1 10.5-7.1 6.3 0 10.8 5.4 11.4 11.8 0 0 .3 1.6-.4 4.5-.9 3.9-3.1 7.4-6 10L25.1 45.6 9.8 31.8c-2.9-2.7-5.1-6.1-6-10-.7-2.9-.4-4.5-.4-4.5C4 10.9 8.6 5.5 14.9 5.5c4.6 0 8.4 2.9 10.2 7.1z" fill="none" stroke="#d75a4a" stroke-width="3" stroke-dasharray="131.2991388817082,5.697794606263152" stroke-dashoffset="136.8600734146" stroke-linejoin="round"/>
  </svg>
  <svg viewBox="0 0 50 50" width="50" height="50" x="2300">
    <path d="M25.1 12.6c1.8-4.2 5.8-7.1 10.5-7.1 6.3 0 10.8 5.4 11.4 11.8 0 0 .3 1.6-.4 4.5-.9 3.9-3.1 7.4-6 10L25.1 45.6 9.8 31.8c-2.9-2.7-5.1-6.1-6-10-.7-2.9-.4-4.5-.4-4.5C4 10.9 8.6 5.5 14.9 5.5c4.6 0 8.4 2.9 10.2 7.1z" fill="none" stroke="#d75a4a" stroke-width="3" stroke-dasharray="132.09808151689634,4.898851971074983" stroke-dashoffset="136.8600734146" stroke-linejoin="round"/>
  </svg>
  <svg viewBox="0 0 50 50" width="50" height="50" x="2350">
    <path d="M25.1 12.6c1.8-4.2 5.8-7.1 10.5-7.1 6.3 0 10.8 5.4 11.4 11.8 0 0 .3 1.6-.4 4.5-.9 3.9-3.1 7.4-6 10L25.1 45.6 9.8 31.8c-2.9-2.7-5.1-6.1-6-10-.7-2.9-.4-4.5-.4-4.5C4 10.9 8.6 5.5 14.9 5.5c4.6 0 8.4 2.9 10.2 7.1z" fill="none" stroke="#d75a4a" stroke-width="3" stroke-dasharray="132.82212349052512,4.1748099974462205" stroke-dashoffset="136.8600734146" stroke-linejoin="round"/>
  </svg>
  <svg viewBox="0 0 50 50" width="50" height="50" x="2400">
    <path d="M25.1 12.6c1.8-4.2 5.8-7.1 10.5-7.1 6.3 0 10.8 5.4 11.4 11.8 0 0 .3 1.6-.4 4.5-.9 3.9-3.1 7.4-6 10L25.1 45.6 9.8 31.8c-2.9-2.7-5.1-6.1-6-10-.7-2.9-.4-4.5-.4-4.5C4 10.9 8.6 5.5 14.9 5.5c4.6 0 8.4 2.9 10.2 7.1z" fill="none" stroke="#d75a4a" stroke-width="3" stroke-dasharray="133.47518405288915,3.5217494350821754" stroke-dashoffset="136.8600734146" stroke-linejoin="round"/>
  </svg>
  <svg viewBox="0 0 50 50" width="50" height="50" x="2450">
    <path d="M25.1 12.6c1.8-4.2 5.8-7.1 10.5-7.1 6.3 0 10.8 5.4 11.4 11.8 0 0 .3 1.6-.4 4.5-.9 3.9-3.1 7.4-6 10L25.1 45.6 9.8 31.8c-2.9-2.7-5.1-6.1-6-10-.7-2.9-.4-4.5-.4-4.5C4 10.9 8.6 5.5 14.9 5.5c4.6 0 8.4 2.9 10.2 7.1z" fill="none" stroke="#d75a4a" stroke-width="3" stroke-dasharray="134.0608757350475,2.9360577529238405" stroke-dashoffset="136.8600734146" stroke-linejoin="round"/>
  </svg>
  <svg viewBox="0 0 50 50" width="50" height="50" x="2500">
    <path d="M25.1 12.6c1.8-4.2 5.8-7.1 10.5-7.1 6.3 0 10.8 5.4 11.4 11.8 0 0 .3 1.6-.4 4.5-.9 3.9-3.1 7.4-6 10L25.1 45.6 9.8 31.8c-2.9-2.7-5.1-6.1-6-10-.7-2.9-.4-4.5-.4-4.5C4 10.9 8.6 5.5 14.9 5.5c4.6 0 8.4 2.9 10.2 7.1z" fill="none" stroke="#d75a4a" stroke-width="3" stroke-dasharray="134.58253506911842,2.4143984188529086" stroke-dashoffset="136.8600734146" stroke-linejoin="round"/>
  </svg>
  <svg viewBox="0 0 50 50" width="50" height="50" x="2550">
    <path d="M25.1 12.6c1.8-4.2 5.8-7.1 10.5-7.1 6.3 0 10.8 5.4 11.4 11.8 0 0 .3 1.6-.4 4.5-.9 3.9-3.1 7.4-6 10L25.1 45.6 9.8 31.8c-2.9-2.7-5.1-6.1-6-10-.7-2.9-.4-4.5-.4-4.5C4 10.9 8.6 5.5 14.9 5.5c4.6 0 8.4 2.9 10.2 7.1z" fill="none" stroke="#d75a4a" stroke-width="3" stroke-dasharray="135.04324967928213,1.9536838086891968" stroke-dashoffset="136.8600734146" stroke-linejoin="round"/>
  </svg>
  <svg viewBox="0 0 50 50" width="50" height="50" x="2600">
    <path d="M25.1 12.6c1.8-4.2 5.8-7.1 10.5-7.1 6.3 0 10.8 5.4 11.4 11.8 0 0 .3 1.6-.4 4.5-.9 3.9-3.1 7.4-6 10L25.1 45.6 9.8 31.8c-2.9-2.7-5.1-6.1-6-10-.7-2.9-.4-4.5-.4-4.5C4 10.9 8.6 5.5 14.9 5.5c4.6 0 8.4 2.9 10.2 7.1z" fill="none" stroke="#d75a4a" stroke-width="3" stroke-dasharray="135.445882221126,1.551051266845327" stroke-dashoffset="136.8600734146" stroke-linejoin="round"/>
  </svg>
  <svg viewBox="0 0 50 50" width="50" height="50" x="2650">
    <path d="M25.1 12.6c1.8-4.2 5.8-7.1 10.5-7.1 6.3 0 10.8 5.4 11.4 11.8 0 0 .3 1.6-.4 4.5-.9 3.9-3.1 7.4-6 10L25.1 45.6 9.8 31.8c-2.9-2.7-5.1-6.1-6-10-.7-2.9-.4-4.5-.4-4.5C4 10.9 8.6 5.5 14.9 5.5c4.6 0 8.4 2.9 10.2 7.1z" fill="none" stroke="#d75a4a" stroke-width="3" stroke-dasharray="135.79309158065905,1.2038419073122708" stroke-dashoffset="136.8600734146" stroke-linejoin="round"/>
  </svg>
  <svg viewBox="0 0 50 50" width="50" height="50" x="2700">
    <path d="M25.1 12.6c1.8-4.2 5.8-7.1 10.5-7.1 6.3 0 10.8 5.4 11.4 11.8 0 0 .3 1.6-.4 4.5-.9 3.9-3.1 7.4-6 10L25.1 45.6 9.8 31.8c-2.9-2.7-5.1-6.1-6-10-.7-2.9-.4-4.5-.4-4.5C4 10.9 8.6 5.5 14.9 5.5c4.6 0 8.4 2.9 10.2 7.1z" fill="none" stroke="#d75a4a" stroke-width="3" stroke-dasharray="136.08735168698183,0.909581800989496" stroke-dashoffset="136.8600734146" stroke-linejoin="round"/>
  </svg>
  <svg viewBox="0 0 50 50" width="50" height="50" x="2750">
    <path d="M25.1 12.6c1.8-4.2 5.8-7.1 10.5-7.1 6.3 0 10.8 5.4 11.4 11.8 0 0 .3 1.6-.4 4.5-.9 3.9-3.1 7.4-6 10L25.1 45.6 9.8 31.8c-2.9-2.7-5.1-6.1-6-10-.7-2.9-.4-4.5-.4-4.5C4 10.9 8.6 5.5 14.9 5.5c4.6 0 8.4 2.9 10.2 7.1z" fill="none" stroke="#d75a4a" stroke-width="3" stroke-dasharray="136.33096824327407,0.6659652446972654" stroke-dashoffset="136.8600734146" stroke-linejoin="round"/>
  </svg>
  <svg viewBox="0 0 50 50" width="50" height="50" x="2800">
    <path d="M25.1 12.6c1.8-4.2 5.8-7.1 10.5-7.1 6.3 0 10.8 5.4 11.4 11.8 0 0 .3 1.6-.4 4.5-.9 3.9-3.1 7.4-6 10L25.1 45.6 9.8 31.8c-2.9-2.7-5.1-6.1-6-10-.7-2.9-.4-4.5-.4-4.5C4 10.9 8.6 5.5 14.9 5.5c4.6 0 8.4 2.9 10.2 7.1z" fill="none" stroke="#d75a4a" stroke-width="3" stroke-dasharray="136.526093638473,0.47083984949835517" stroke-dashoffset="136.8600734146" stroke-linejoin="round"/>
  </svg>
  <svg viewBox="0 0 50 50" width="50" height="50" x="2850">
    <path d="M25.1 12.6c1.8-4.2 5.8-7.1 10.5-7.1 6.3 0 10.8 5.4 11.4 11.8 0 0 .3 1.6-.4 4.5-.9 3.9-3.1 7.4-6 10L25.1 45.6 9.8 31.8c-2.9-2.7-5.1-6.1-6-10-.7-2.9-.4-4.5-.4-4.5C4 10.9 8.6 5.5 14.9 5.5c4.6 0 8.4 2.9 10.2 7.1z" fill="none" stroke="#d75a4a" stroke-width="3" stroke-dasharray="136.67474026582596,0.3221932221453705" stroke-dashoffset="136.8600734146" stroke-linejoin="round"/>
  </svg>
  <svg viewBox="0 0 50 50" width="50" height="50" x="2900">
    <path d="M25.1 12.6c1.8-4.2 5.8-7.1 10.5-7.1 6.3 0 10.8 5.4 11.4 11.8 0 0 .3 1.6-.4 4.5-.9 3.9-3.1 7.4-6 10L25.1 45.6 9.8 31.8c-2.9-2.7-5.1-6.1-6-10-.7-2.9-.4-4.5-.4-4.5C4 10.9 8.6 5.5 14.9 5.5c4.6 0 8.4 2.9 10.2 7.1z" fill="none" stroke="#d75a4a" stroke-width="3" stroke-dasharray="136.77879244356066,0.2181410444106793" stroke-dashoffset="136.8600734146" stroke-linejoin="round"/>
  </svg>
  <svg viewBox="0 0 50 50" width="50" height="50" x="2950">
    <path d="M25.1 12.6c1.8-4.2 5.8-7.1 10.5-7.1 6.3 0 10.8 5.4 11.4 11.8 0 0 .3 1.6-.4 4.5-.9 3.9-3.1 7.4-6 10L25.1 45.6 9.8 31.8c-2.9-2.7-5.1-6.1-6-10-.7-2.9-.4-4.5-.4-4.5C4 10.9 8.6 5.5 14.9 5.5c4.6 0 8.4 2.9 10.2 7.1z" fill="none" stroke="#d75a4a" stroke-width="3" stroke-dasharray="136.84001710646552,0.15691638150580076" stroke-dashoffset="136.8600734146" stroke-linejoin="round"/>
  </svg>
  <svg viewBox="0 0 50 50" width="50" height="50" x="3000">
    <path d="M25.1 12.6c1.8-4.2 5.8-7.1 10.5-7.1 6.3 0 10.8 5.4 11.4 11.8 0 0 .3 1.6-.4 4.5-.9 3.9-3.1 7.4-6 10L25.1 45.6 9.8 31.8c-2.9-2.7-5.1-6.1-6-10-.7-2.9-.4-4.5-.4-4.5C4 10.9 8.6 5.5 14.9 5.5c4.6 0 8.4 2.9 10.2 7.1z" fill="none" stroke="#d75a4a" stroke-width="3" stroke-linejoin="round"/>
  </svg>
</svg>
