<?xml version="1.0" encoding="utf-8"?>
<!-- Generator: Adobe Illustrator 21.1.0, SVG Export Plug-In . SVG Version: 6.00 Build 0)  -->
<svg version="1.1" id="레이어_1" xmlns="http://www.w3.org/2000/svg" xmlns:xlink="http://www.w3.org/1999/xlink" x="0px"
	 y="0px" viewBox="0 0 32 32" style="enable-background:new 0 0 32 32;" xml:space="preserve">
<style type="text/css">
	.st0{fill:#FFFFFF;}
</style>
<g>
	<path class="st0" d="M18.7,25H29V5H16.5v20.6l0.4-0.2C17.5,25.1,18.1,25,18.7,25z M20.5,12h5c0.3,0,0.5,0.2,0.5,0.5
		S25.8,13,25.5,13h-5c-0.3,0-0.5-0.2-0.5-0.5S20.2,12,20.5,12z M20.5,14h5c0.3,0,0.5,0.2,0.5,0.5S25.8,15,25.5,15h-5
		c-0.3,0-0.5-0.2-0.5-0.5S20.2,14,20.5,14z M20.5,16h5c0.3,0,0.5,0.2,0.5,0.5S25.8,17,25.5,17h-5c-0.3,0-0.5-0.2-0.5-0.5
		S20.2,16,20.5,16z"/>
	<path class="st0" d="M6.5,13h5c0.3,0,0.5-0.2,0.5-0.5S11.8,12,11.5,12h-5C6.2,12,6,12.2,6,12.5S6.2,13,6.5,13z"/>
	<path class="st0" d="M30,5.3V25c0,0.6-0.4,1-1,1H18.7c-0.5,0-0.9,0.1-1.3,0.3l-0.9,0.5c-0.1,0.1-0.3,0.1-0.4,0.1s-0.3,0-0.4-0.1
		l-0.9-0.5c-0.4-0.2-0.9-0.3-1.3-0.3H3c-0.6,0-1-0.4-1-1V5.3C1.4,5.6,1,6.3,1,7v18c0,1.1,0.9,2,2,2h11v1h4v-1h11c1.1,0,2-0.9,2-2V7
		C31,6.3,30.6,5.6,30,5.3z"/>
	<path class="st0" d="M6.5,15h5c0.3,0,0.5-0.2,0.5-0.5S11.8,14,11.5,14h-5C6.2,14,6,14.2,6,14.5S6.2,15,6.5,15z"/>
	<path class="st0" d="M6.5,17h5c0.3,0,0.5-0.2,0.5-0.5S11.8,16,11.5,16h-5C6.2,16,6,16.2,6,16.5S6.2,17,6.5,17z"/>
</g>
</svg>
