<?xml version="1.0" encoding="utf-8"?>
<!-- Generator: Adobe Illustrator 21.1.0, SVG Export Plug-In . SVG Version: 6.00 Build 0)  -->
<svg version="1.1" id="레이어_1" xmlns="http://www.w3.org/2000/svg" xmlns:xlink="http://www.w3.org/1999/xlink" x="0px" width="80px" height="80px" 
	 y="0px" viewBox="0 0 32 32" style="enable-background:new 0 0 32 32;" xml:space="preserve">
<style type="text/css">
	.st0{fill:#FFFFFF;}
</style>
<g>
	<path class="st0" d="M23.0000156,4.01564062 L22.8998906,4.01564062 C22.4365781,1.73348437 20.4188438,0.01565625 18,0.01565625 C16.2209531,0.01565625 14.6590312,0.94509375 13.7728125,2.3446875 C13.2555937,2.113125 12.6874687,2.01534375 12.0002344,2.01534375 C11.3136094,2.01534375 10.74525,2.11345312 10.2276094,2.34529687 C9.3414375,0.945328125 7.77932812,0.01565625 6.00004687,0.01565625 C3.58125,0.01565625 1.56351562,1.73353125 1.10015625,4.01564062 L1.00003125,4.01564062 C0.447703125,4.01564062 0,4.46334375 0,5.015625 C0,5.56790625 0.447703125,6.01560937 0.999984375,6.01560937 L1.10010937,6.01560937 C1.56342187,8.29776562 3.58115625,10.0155937 6,10.0155937 C8.76126563,10.0155937 11.0000156,7.77689062 11.0000156,5.01557812 C11.0000156,4.74665625 10.9785,4.48284375 10.937625,4.22540625 C11.2214531,4.06926562 11.5309219,4.01526562 12.0001875,4.01526562 C12.4702969,4.01526562 12.7793438,4.06889062 13.0624688,4.22470312 C13.0215,4.48232812 12.9999844,4.74642187 12.9999844,5.01557812 C12.9999844,7.77684375 15.2386875,10.0155937 18,10.0155937 C20.4187969,10.0155937 22.4365313,8.29771875 22.8998906,6.01560937 L23.0000156,6.01560937 C23.5522969,6.01560937 24,5.56790625 24,5.015625 C24,4.46334375 23.5522969,4.01564062 23.0000156,4.01564062 Z M6,8.015625 C4.34329688,8.015625 3,6.67232812 3,5.015625 C3,3.35892187 4.34329688,2.015625 6,2.015625 C7.65670313,2.015625 9,3.35892188 9,5.015625 C9,6.67232812 7.65670312,8.015625 6,8.015625 Z M18,8.015625 C16.3432969,8.015625 15,6.67232812 15,5.015625 C15,3.35892187 16.3432969,2.015625 18,2.015625 C19.6567031,2.015625 21,3.35892188 21,5.015625 C21,6.67232812 19.6567031,8.015625 18,8.015625 Z"/>
</g>
</svg>
