<svg xmlns="http://www.w3.org/2000/svg" viewBox="0 0 36200 200" width="36200" height="200">
  <svg viewBox="0 0 200 200" width="200" height="200">
    <path d="M119.152 127.76v22.32l-7.488-22.32H64L119.152 50v70.704l17.424 7.056h-17.424" fill="#2196f3"/>
  </svg>
  <svg viewBox="0 0 200 200" width="200" height="200" x="200">
    <path d="M119.166 127.744v22.336c-2.512-7.445-5.02-14.88-7.517-22.303l-47.699.007C82.348 101.869 100.755 75.938 119.165 50c.013 23.585.024 47.162.024 70.723l17.437 7.054c-5.812-.023-11.635-.033-17.46-.033" fill="#2196f3"/>
  </svg>
  <svg viewBox="0 0 200 200" width="200" height="200" x="400">
    <path d="M119.204 127.699v22.382c-2.556-7.461-5.097-14.883-7.6-22.256l-47.796.028c18.435-25.9 36.91-51.862 55.396-77.855.051 23.634.093 47.238.093 70.778l17.473 7.049c-5.825-.088-11.689-.126-17.566-.126" fill="#2196f3"/>
  </svg>
  <svg viewBox="0 0 200 200" width="200" height="200" x="600">
    <path d="M119.266 127.627v22.455c-2.627-7.485-5.221-14.886-7.732-22.18l-47.953.061c18.495-25.877 37.078-51.889 55.684-77.967.11 23.711.203 47.358.203 70.864l17.53 7.042c-5.843-.193-11.775-.275-17.732-.275" fill="#2196f3"/>
  </svg>
  <svg viewBox="0 0 200 200" width="200" height="200" x="800">
    <path d="M119.348 127.531v22.553c-2.722-7.518-5.385-14.891-7.907-22.081l-48.162.106c18.576-25.845 37.302-51.925 56.068-78.115.189 23.814.349 47.517.349 70.979l17.606 7.032c-5.869-.333-11.889-.474-17.954-.474" fill="#2196f3"/>
  </svg>
  <svg viewBox="0 0 200 200" width="200" height="200" x="1000">
    <path d="M119.448 127.414v22.672c-2.837-7.557-5.586-14.896-8.121-21.959l-48.416.16c18.674-25.807 37.575-51.968 56.535-78.297.286 23.94.527 47.712.527 71.12l17.699 7.02c-5.9-.502-12.029-.716-18.224-.716" fill="#2196f3"/>
  </svg>
  <svg viewBox="0 0 200 200" width="200" height="200" x="1200">
    <path d="M119.564 127.279v22.81c-2.971-7.603-5.818-14.903-8.369-21.818l-48.709.221c18.787-25.762 37.89-52.017 57.075-78.505.398 24.084.732 47.936.732 71.281l17.806 7.006c-5.935-.698-12.189-.995-18.535-.995" fill="#2196f3"/>
  </svg>
  <svg viewBox="0 0 200 200" width="200" height="200" x="1400">
    <path d="M119.693 127.129v22.963c-3.119-7.655-6.076-14.911-8.644-21.662l-49.035.29c18.912-25.713 38.24-52.072 57.674-78.737.522 24.246.962 48.185.962 71.462l17.925 6.989c-5.975-.915-12.369-1.305-18.882-1.305" fill="#2196f3"/>
  </svg>
  <svg viewBox="0 0 200 200" width="200" height="200" x="1600">
    <path d="M119.832 126.967v23.127c-3.279-7.709-6.355-14.918-8.941-21.491l-49.388.364c19.048-25.659 38.618-52.131 58.323-78.989.657 24.42 1.209 48.455 1.209 71.657l18.054 6.973c-6.018-1.151-12.562-1.641-19.257-1.641" fill="#2196f3"/>
  </svg>
  <svg viewBox="0 0 200 200" width="200" height="200" x="1800">
    <path d="M119.979 126.796v23.302c-3.449-7.768-6.65-14.927-9.256-21.313l-49.761.444c19.193-25.604 39.019-52.195 59.011-79.256.798 24.605 1.469 48.741 1.469 71.864l18.191 6.954c-6.063-1.4-12.767-1.995-19.654-1.995" fill="#2196f3"/>
  </svg>
  <svg viewBox="0 0 200 200" width="200" height="200" x="2000">
    <path d="M120.132 126.617v23.484c-3.625-7.828-6.957-14.935-9.583-21.127l-50.148.526c19.342-25.545 39.435-52.261 59.723-79.532.946 24.797 1.741 49.038 1.741 72.078l18.333 6.936c-6.111-1.659-12.98-2.365-20.066-2.365" fill="#2196f3"/>
  </svg>
  <svg viewBox="0 0 200 200" width="200" height="200" x="2200">
    <path d="M120.287 126.436v23.668c-3.804-7.889-7.268-14.944-9.915-20.937l-50.544.609c19.495-25.485 39.86-52.327 60.451-79.813 1.096 24.992 2.018 49.34 2.018 72.296l18.477 6.917c-6.159-1.923-13.197-2.74-20.487-2.74" fill="#2196f3"/>
  </svg>
  <svg viewBox="0 0 200 200" width="200" height="200" x="2400">
    <path d="M120.444 126.253v23.854c-3.984-7.951-7.582-14.952-10.25-20.746l-50.94.693c19.647-25.425 40.285-52.394 61.18-80.096 1.247 25.188 2.296 49.644 2.296 72.516l18.622 6.897c-6.207-2.187-13.414-3.118-20.908-3.118" fill="#2196f3"/>
  </svg>
  <svg viewBox="0 0 200 200" width="200" height="200" x="2600">
    <path d="M120.598 126.073v24.038c-4.162-8.013-7.892-14.961-10.58-20.558l-51.332.776c19.799-25.366 40.706-52.461 61.901-80.376 1.397 25.382 2.572 49.944 2.572 72.732l18.765 6.879c-6.255-2.449-13.63-3.491-21.326-3.491" fill="#2196f3"/>
  </svg>
  <svg viewBox="0 0 200 200" width="200" height="200" x="2800">
    <path d="M120.749 125.898v24.216c-4.336-8.072-8.194-14.97-10.902-20.375l-51.713.857c19.946-25.309 41.115-52.525 62.602-80.648 1.542 25.571 2.839 50.236 2.839 72.943l18.904 6.86c-6.301-2.703-13.839-3.853-21.73-3.853" fill="#2196f3"/>
  </svg>
  <svg viewBox="0 0 200 200" width="200" height="200" x="3000">
    <path d="M120.892 125.73v24.387c-4.5-8.129-8.481-14.978-11.208-20.2l-52.077.933c20.086-25.253 41.505-52.586 63.272-80.906 1.68 25.75 3.093 50.513 3.093 73.144l19.037 6.842c-6.345-2.946-14.038-4.2-22.117-4.2" fill="#2196f3"/>
  </svg>
  <svg viewBox="0 0 200 200" width="200" height="200" x="3200">
    <path d="M121.026 125.574v24.546c-4.655-8.182-8.75-14.985-11.495-20.037l-52.417 1.006c20.217-25.202 41.871-52.645 63.898-81.15 1.809 25.919 3.332 50.775 3.332 73.332l19.161 6.827c-6.387-3.174-14.225-4.524-22.479-4.524" fill="#2196f3"/>
  </svg>
  <svg viewBox="0 0 200 200" width="200" height="200" x="3400">
    <path d="M121.149 125.431v24.691c-4.796-8.23-8.996-14.992-11.757-19.887l-52.728 1.071c20.337-25.155 42.204-52.697 64.469-81.371 1.928 26.072 3.55 51.012 3.55 73.504l19.275 6.811c-6.425-3.381-14.396-4.819-22.809-4.819" fill="#2196f3"/>
  </svg>
  <svg viewBox="0 0 200 200" width="200" height="200" x="3600">
    <path d="M121.257 125.305v24.82c-4.921-8.273-9.212-14.998-11.988-19.756l-53.002 1.129c20.443-25.113 42.498-52.743 64.974-81.566 2.032 26.208 3.741 51.222 3.741 73.655l19.376 6.798c-6.459-3.564-14.546-5.08-23.101-5.08" fill="#2196f3"/>
  </svg>
  <svg viewBox="0 0 200 200" width="200" height="200" x="3800">
    <path d="M121.348 125.198v24.929c-5.026-8.31-9.395-15.004-12.183-19.644l-53.234 1.178c20.532-25.079 42.747-52.783 65.4-81.732 2.121 26.322 3.905 51.399 3.905 73.784l19.46 6.786c-6.487-3.719-14.673-5.301-23.348-5.301" fill="#2196f3"/>
  </svg>
  <svg viewBox="0 0 200 200" width="200" height="200" x="4000">
    <path d="M121.42 125.114v25.014c-5.109-8.338-9.54-15.007-12.337-19.556l-53.418 1.217c20.603-25.051 42.945-52.814 65.738-81.862 2.19 26.413 4.033 51.539 4.033 73.885l19.527 6.778c-6.509-3.842-14.774-5.476-23.543-5.476" fill="#2196f3"/>
  </svg>
  <svg viewBox="0 0 200 200" width="200" height="200" x="4200">
    <path d="M121.471 125.055v25.074c-5.167-8.358-9.642-15.01-12.446-19.494l-53.546 1.244c20.653-25.032 43.082-52.835 65.974-81.954 2.239 26.476 4.123 51.638 4.123 73.956l19.574 6.772c-6.524-3.928-14.844-5.598-23.679-5.598" fill="#2196f3"/>
  </svg>
  <svg viewBox="0 0 200 200" width="200" height="200" x="4400">
    <path d="M121.498 125.024v25.106c-5.198-8.369-9.696-15.012-12.503-19.462l-53.613 1.258c20.678-25.021 43.154-52.847 66.098-82.002 2.264 26.51 4.17 51.689 4.17 73.993l19.598 6.769c-6.533-3.972-14.881-5.662-23.75-5.662" fill="#2196f3"/>
  </svg>
  <svg viewBox="0 0 200 200" width="200" height="200" x="4600">
    <path d="M121.497 125.024v25.106c-5.197-8.369-9.694-15.012-12.502-19.462l-53.613 1.258c20.679-25.022 43.154-52.847 66.097-82.002 2.265 26.51 4.17 51.689 4.17 73.993l19.599 6.769c-6.533-3.972-14.881-5.662-23.751-5.662" fill="#2196f3"/>
  </svg>
  <svg viewBox="0 0 200 200" width="200" height="200" x="4800">
    <path d="M121.468 125.058v25.071c-5.164-8.357-9.636-15.01-12.44-19.498l-53.539 1.243c20.65-25.033 43.075-52.834 65.962-81.949 2.236 26.473 4.117 51.633 4.117 73.952l19.572 6.772c-6.524-3.922-14.84-5.591-23.672-5.591" fill="#2196f3"/>
  </svg>
  <svg viewBox="0 0 200 200" width="200" height="200" x="5000">
    <path d="M121.408 125.129v24.999c-5.095-8.333-9.515-15.007-12.311-19.572l-53.385 1.21c20.591-25.056 42.91-52.808 65.678-81.839 2.178 26.397 4.01 51.515 4.01 73.867l19.516 6.779c-6.506-3.819-14.756-5.444-23.508-5.444" fill="#2196f3"/>
  </svg>
  <svg viewBox="0 0 200 200" width="200" height="200" x="5200">
    <path d="M121.313 125.24v24.886c-4.985-8.295-9.325-15.001-12.108-19.687l-53.144 1.159c20.497-25.092 42.651-52.768 65.235-81.668 2.087 26.278 3.842 51.331 3.842 73.734l19.427 6.791c-6.476-3.659-14.624-5.215-23.252-5.215" fill="#2196f3"/>
  </svg>
  <svg viewBox="0 0 200 200" width="200" height="200" x="5400">
    <path d="M121.182 125.393v24.73c-4.834-8.243-9.062-14.994-11.827-19.847l-52.812 1.089c20.369-25.143 42.294-52.711 64.623-81.431 1.96 26.114 3.608 51.076 3.608 73.55l19.306 6.808c-6.435-3.437-14.441-4.899-22.898-4.899" fill="#2196f3"/>
  </svg>
  <svg viewBox="0 0 200 200" width="200" height="200" x="5600">
    <path d="M121.011 125.591v24.529c-4.638-8.177-8.72-14.985-11.463-20.055l-52.38.997c20.203-25.207 41.831-52.638 63.829-81.122 1.795 25.9 3.305 50.745 3.305 73.311l19.148 6.828c-6.382-3.149-14.204-4.488-22.439-4.488" fill="#2196f3"/>
  </svg>
  <svg viewBox="0 0 200 200" width="200" height="200" x="5800">
    <path d="M120.8 125.838v24.277c-4.394-8.092-8.296-14.973-11.011-20.312l-51.843.883c19.996-25.288 41.254-52.547 62.841-80.739 1.591 25.634 2.929 50.334 2.929 73.014l18.952 6.854c-6.317-2.79-13.91-3.977-21.868-3.977" fill="#2196f3"/>
  </svg>
  <svg viewBox="0 0 200 200" width="200" height="200" x="6000">
    <path d="M120.544 126.136v23.974c-4.1-7.991-7.783-14.959-10.464-20.624l-51.195.746c19.746-25.386 40.559-52.437 61.648-80.277 1.344 25.314 2.475 49.838 2.475 72.656l18.715 6.885c-6.239-2.357-13.554-3.36-21.179-3.36" fill="#2196f3"/>
  </svg>
  <svg viewBox="0 0 200 200" width="200" height="200" x="6200">
    <path d="M120.242 126.489v23.614c-3.752-7.871-7.178-14.941-9.818-20.992l-50.429.585c19.45-25.502 39.736-52.308 60.239-79.731 1.052 24.935 1.937 49.252 1.937 72.232l18.435 6.923c-6.145-1.846-13.133-2.631-20.364-2.631" fill="#2196f3"/>
  </svg>
  <svg viewBox="0 0 200 200" width="200" height="200" x="6400">
    <path d="M119.891 126.898v23.198c-3.347-7.733-6.474-14.922-9.068-21.42l-49.539.397c19.107-25.637 38.781-52.157 58.601-79.097.714 24.495 1.314 48.571 1.314 71.741l18.11 6.965c-6.037-1.252-12.645-1.784-19.418-1.784" fill="#2196f3"/>
  </svg>
  <svg viewBox="0 0 200 200" width="200" height="200" x="6600">
    <path d="M119.489 127.367v22.72c-2.884-7.573-5.668-14.899-8.208-21.909l-48.519.18c18.714-25.791 37.685-51.984 56.724-78.369.326 23.991.599 47.79.599 71.176l17.736 7.015c-5.912-.57-12.084-.813-18.332-.813" fill="#2196f3"/>
  </svg>
  <svg viewBox="0 0 200 200" width="200" height="200" x="6800">
    <path d="M119.033 127.899v22.178c-2.359-7.392-4.753-14.873-7.233-22.465l-47.362-.064c18.267-25.965 36.443-51.789 54.596-77.544-.115 23.418-.212 46.904-.212 70.537l17.313 7.07c-5.771.202-11.45.288-17.102.288" fill="#2196f3"/>
  </svg>
  <svg viewBox="0 0 200 200" width="200" height="200" x="7000">
    <path d="M118.52 128.497v21.57c-1.768-7.19-3.725-14.845-6.137-23.09l-46.062-.339c17.766-26.162 35.048-51.569 52.204-76.618-.609 22.776-1.122 45.91-1.122 69.819l16.838 7.133c-5.613 1.07-10.737 1.525-15.721 1.525" fill="#2196f3"/>
  </svg>
  <svg viewBox="0 0 200 200" width="200" height="200" x="7200">
    <path d="M117.949 129.163v20.891c-1.11-6.963-2.58-14.812-4.916-23.785l-44.614-.645c17.207-26.381 33.493-51.324 49.54-75.585-1.162 22.06-2.139 44.801-2.139 69.017l16.309 7.204c-5.436 2.037-9.941 2.903-14.18 2.903" fill="#2196f3"/>
  </svg>
  <svg viewBox="0 0 200 200" width="200" height="200" x="7400">
    <path d="M117.317 129.901v20.14c-.382-6.714-1.313-14.777-3.565-24.556l-43.009-.984c16.588-26.623 31.771-51.053 46.588-74.442-1.772 21.267-3.262 43.574-3.262 68.131l15.722 7.281c-5.241 3.108-9.061 4.43-12.474 4.43" fill="#2196f3"/>
  </svg>
  <svg viewBox="0 0 200 200" width="200" height="200" x="7600">
    <path d="M116.621 130.712v19.314c.42-6.438.083-14.738-2.077-25.404L73.3 123.264c15.908-26.889 29.876-50.753 43.34-73.182-2.444 20.393-4.5 42.222-4.5 67.154l15.077 7.367c-5.025 4.286-8.092 6.109-10.596 6.109" fill="#2196f3"/>
  </svg>
  <svg viewBox="0 0 200 200" width="200" height="200" x="7800">
    <path d="M115.859 131.602v18.408c1.298-6.136 1.611-14.695-.447-26.333l-39.311-1.766c15.162-27.182 27.801-50.427 39.783-71.804-3.18 19.437-5.855 40.742-5.855 66.085l14.37 7.46c-4.79 5.577-7.031 7.95-8.54 7.95" fill="#2196f3"/>
  </svg>
  <svg viewBox="0 0 200 200" width="200" height="200" x="8000">
    <path d="M115.028 132.571v17.421c2.255-5.807 3.278-14.648 1.329-27.345l-37.202-2.212c14.349-27.501 25.537-50.07 35.904-70.302-3.982 18.396-7.332 39.13-7.332 64.921l13.6 7.561c-4.534 6.985-5.875 9.956-6.299 9.956" fill="#2196f3"/>
  </svg>
  <svg viewBox="0 0 200 200" width="200" height="200" x="8200">
    <path d="M114.125 133.623v16.35c3.295-5.45 5.087-14.598 3.259-28.444l-34.915-2.697c13.467-27.845 23.082-49.683 31.695-68.669-4.853 17.264-8.936 37.378-8.936 63.655l12.763 7.672c-4.254 8.513-4.618 12.133-3.866 12.133" fill="#2196f3"/>
  </svg>
  <svg viewBox="0 0 200 200" width="200" height="200" x="8400">
    <path d="M113.15 134.761v15.191c4.418-5.063 7.043-14.542 5.344-29.633l-32.44-3.22c12.512-28.219 20.425-49.264 27.142-66.905-5.796 16.04-10.671 35.484-10.671 62.287l11.859 7.792c-3.953 10.165-3.261 14.488-1.234 14.488" fill="#2196f3"/>
  </svg>
  <svg viewBox="0 0 200 200" width="200" height="200" x="8600">
    <path d="M112.098 135.988v13.942c5.63-4.647 9.152-14.484 7.593-30.915l-29.772-3.784c11.483-28.622 17.561-48.813 22.233-65.003-6.811 14.721-12.541 33.442-12.541 60.812l10.884 7.921c-3.628 11.946-1.796 17.027 1.603 17.027" fill="#2196f3"/>
  </svg>
  <svg viewBox="0 0 200 200" width="200" height="200" x="8800">
    <path d="M110.967 137.307v12.599c6.933-4.2 11.419-14.42 10.01-32.292l-26.904-4.39c10.377-29.056 14.482-48.328 16.957-62.959-7.902 13.303-14.55 31.248-14.55 59.227l9.835 8.059c-3.278 13.861-.222 19.756 4.652 19.756" fill="#2196f3"/>
  </svg>
  <svg viewBox="0 0 200 200" width="200" height="200" x="9000">
    <path d="M109.756 138.72v11.16c8.328-3.72 13.848-14.352 12.6-33.768l-23.832-5.04c9.192-29.52 11.184-47.808 11.304-60.768-9.072 11.784-16.704 28.896-16.704 57.528l8.712 8.208c-2.904 15.912 1.464 22.68 7.92 22.68" fill="#2196f3"/>
  </svg>
  <svg viewBox="0 0 200 200" width="200" height="200" x="9200">
    <path d="M108.545 140.133v9.721c9.723-3.24 16.277-14.284 15.19-35.244l-20.76-5.69c8.007-29.984 7.886-47.288 5.651-58.577-10.242 10.265-18.858 26.544-18.858 55.829l7.589 8.357c-2.53 17.963 3.15 25.604 11.188 25.604" fill="#2196f3"/>
  </svg>
  <svg viewBox="0 0 200 200" width="200" height="200" x="9400">
    <path d="M107.414 141.452v8.378c11.026-2.793 18.544-14.22 17.607-36.621l-17.892-6.296c6.901-30.418 4.807-46.803.375-56.533-11.333 8.847-20.867 24.35-20.867 54.244l6.54 8.495c-2.18 19.878 4.724 28.333 14.237 28.333" fill="#2196f3"/>
  </svg>
  <svg viewBox="0 0 200 200" width="200" height="200" x="9600">
    <path d="M106.362 142.679v7.129c12.238-2.377 20.653-14.162 19.856-37.903l-15.224-6.86c5.872-30.821 1.943-46.352-4.534-54.631-12.348 7.528-22.737 22.308-22.737 52.769l5.565 8.624c-1.855 21.659 6.189 30.872 17.074 30.872" fill="#2196f3"/>
  </svg>
  <svg viewBox="0 0 200 200" width="200" height="200" x="9800">
    <path d="M105.387 143.817v5.97c13.361-1.99 22.609-14.106 21.941-39.092l-12.749-7.383c4.917-31.195-.714-45.933-9.087-52.867-13.291 6.304-24.472 20.414-24.472 51.401l4.661 8.744c-1.554 23.311 7.546 33.227 19.706 33.227" fill="#2196f3"/>
  </svg>
  <svg viewBox="0 0 200 200" width="200" height="200" x="10000">
    <path d="M104.484 144.869v4.899c14.401-1.633 24.418-14.056 23.871-40.191l-10.462-7.868c4.035-31.539-3.169-45.546-13.296-51.234-14.162 5.172-26.076 18.662-26.076 50.135l3.824 8.855c-1.274 24.839 8.803 35.404 22.139 35.404" fill="#2196f3"/>
  </svg>
  <svg viewBox="0 0 200 200" width="200" height="200" x="10200">
    <path d="M103.653 145.838v3.912c15.358-1.304 26.085-14.009 25.647-41.203l-8.353-8.314c3.222-31.858-5.433-45.189-17.175-49.732-14.964 4.131-27.553 17.05-27.553 48.971l3.054 8.956c-1.018 26.247 9.959 37.41 24.38 37.41" fill="#2196f3"/>
  </svg>
  <svg viewBox="0 0 200 200" width="200" height="200" x="10400">
    <path d="M102.891 146.728v3.006c16.236-1.002 27.613-13.966 27.277-42.132l-6.42-8.722c2.476-32.151-7.508-44.863-20.732-48.354-15.7 3.175-28.908 15.57-28.908 47.902l2.347 9.049c-.783 27.538 11.02 39.251 26.436 39.251" fill="#2196f3"/>
  </svg>
  <svg viewBox="0 0 200 200" width="200" height="200" x="10600">
    <path d="M102.195 147.539v2.18c17.038-.726 29.009-13.927 28.765-42.98l-4.655-9.096c1.796-32.417-9.403-44.563-23.98-47.094-16.372 2.301-30.146 14.218-30.146 46.925l1.702 9.135c-.567 28.716 11.989 40.93 28.314 40.93" fill="#2196f3"/>
  </svg>
  <svg viewBox="0 0 200 200" width="200" height="200" x="10800">
    <path d="M101.563 148.277v1.429c17.766-.477 30.276-13.892 30.116-43.751l-3.05-9.435c1.177-32.659-11.125-44.292-26.932-45.951-16.982 1.508-31.269 12.991-31.269 46.039l1.115 9.212c-.372 29.787 12.869 42.457 30.02 42.457" fill="#2196f3"/>
  </svg>
  <svg viewBox="0 0 200 200" width="200" height="200" x="11000">
    <path d="M100.992 148.943v.75c18.424-.25 31.421-13.859 31.337-44.446l-1.602-9.741c.618-32.878-12.68-44.047-29.596-44.918-17.535.792-32.286 11.882-32.286 45.237l.586 9.283c-.195 30.754 13.665 43.835 31.561 43.835" fill="#2196f3"/>
  </svg>
  <svg viewBox="0 0 200 200" width="200" height="200" x="11200">
    <path d="M100.479 149.541v.142c19.015-.048 32.449-13.831 32.433-45.071l-.302-10.016c.117-33.075-14.075-43.827-31.988-43.992-18.029.15-33.196 10.888-33.196 44.519l.111 9.346c-.037 31.622 14.378 45.072 32.942 45.072" fill="#2196f3"/>
  </svg>
  <svg viewBox="0 0 200 200" width="200" height="200" x="11400">
    <path d="M100.023 150.073v-.4c19.54.133 33.364-13.805 33.408-45.627l.855-10.26c-.33-33.249-15.317-43.632-34.116-43.167-18.47-.423-34.007 10.002-34.007 43.88l-.312 9.401c.104 32.394 15.012 46.173 34.172 46.173" fill="#2196f3"/>
  </svg>
  <svg viewBox="0 0 200 200" width="200" height="200" x="11600">
    <path d="M99.621 150.542v-.878c20.003.293 34.17-13.782 34.268-46.116l1.875-10.477c-.723-33.403-16.413-43.459-35.993-42.439-18.858-.927-34.722 9.221-34.722 43.315l-.686 9.451c.229 33.076 15.573 47.144 35.258 47.144" fill="#2196f3"/>
  </svg>
  <svg viewBox="0 0 200 200" width="200" height="200" x="11800">
    <path d="M99.27 150.951v-1.294c20.408.431 34.874-13.763 35.018-46.544l2.765-10.665c-1.066-33.538-17.368-43.308-37.631-41.805-19.196-1.367-35.345 8.54-35.345 42.824l-1.011 9.493c.337 33.67 16.061 47.991 36.204 47.991" fill="#2196f3"/>
  </svg>
  <svg viewBox="0 0 200 200" width="200" height="200" x="12000">
    <path d="M98.968 151.304v-1.654c20.756.551 35.479-13.745 35.664-46.912l3.531-10.826c-1.362-33.654-18.191-43.179-39.04-41.259-19.488-1.746-35.883 7.954-35.883 42.4l-1.291 9.531c.431 34.181 16.482 48.72 37.019 48.72" fill="#2196f3"/>
  </svg>
  <svg viewBox="0 0 200 200" width="200" height="200" x="12200">
    <path d="M98.712 151.602v-1.957c21.05.652 35.992-13.731 36.211-47.224l4.179-10.963c-1.612-33.752-18.886-43.069-40.233-40.797-19.735-2.066-36.337 7.458-36.337 42.042l-1.528 9.562c.509 34.614 16.838 49.337 37.708 49.337" fill="#2196f3"/>
  </svg>
  <svg viewBox="0 0 200 200" width="200" height="200" x="12400">
    <path d="M98.501 151.849v-2.209c21.294.737 36.416-13.719 36.663-47.481l4.716-11.077c-1.819-33.833-19.463-42.978-41.221-40.414-19.939-2.332-36.713 7.047-36.713 41.745l-1.724 9.588c.574 34.973 17.132 49.848 38.279 49.848" fill="#2196f3"/>
  </svg>
  <svg viewBox="0 0 200 200" width="200" height="200" x="12600">
    <path d="M98.33 152.047v-2.41c21.49.803 36.758-13.71 37.027-47.689l5.148-11.169c-1.985-33.897-19.926-42.905-42.015-40.105-20.104-2.546-37.016 6.716-37.016 41.506l-1.882 9.608c.627 35.261 17.369 50.259 38.738 50.259" fill="#2196f3"/>
  </svg>
  <svg viewBox="0 0 200 200" width="200" height="200" x="12800">
    <path d="M98.199 152.2v-2.566c21.641.855 37.021-13.703 37.308-47.849l5.48-11.239c-2.113-33.948-20.283-42.848-42.627-39.868C78.129 47.968 61.11 57.139 61.11 92l-2.003 9.625c.668 35.483 17.552 50.575 39.092 50.575" fill="#2196f3"/>
  </svg>
  <svg viewBox="0 0 200 200" width="200" height="200" x="13000">
    <path d="M98.104 152.311v-2.679c21.751.893 37.211-13.697 37.511-47.964l5.721-11.29c-2.207-33.984-20.542-42.808-43.07-39.697-20.322-2.829-37.418 6.277-37.418 41.189l-2.092 9.637c.698 35.643 17.684 50.804 39.348 50.804" fill="#2196f3"/>
  </svg>
  <svg viewBox="0 0 200 200" width="200" height="200" x="13200">
    <path d="M98.044 152.382v-2.751c21.82.917 37.332-13.694 37.64-48.038l5.875-11.323c-2.266-34.007-20.707-42.782-43.354-39.587-20.38-2.905-37.525 6.159-37.525 41.104l-2.148 9.644c.716 35.746 17.768 50.951 39.512 50.951" fill="#2196f3"/>
  </svg>
  <svg viewBox="0 0 200 200" width="200" height="200" x="13400">
    <path d="M98.015 152.416v-2.786c21.853.929 37.39-13.692 37.702-48.074l5.949-11.338C139.371 56.2 120.88 47.449 98.177 50.684c-20.409-2.942-37.578 6.103-37.578 41.063l-2.175 9.647c.725 35.796 17.809 51.022 39.591 51.022" fill="#2196f3"/>
  </svg>
  <svg viewBox="0 0 200 200" width="200" height="200" x="13600">
    <path d="M98.014 152.416v-2.786c21.854.929 37.392-13.692 37.703-48.074l5.949-11.338c-2.294-34.019-20.786-42.769-43.49-39.534-20.408-2.942-37.578 6.103-37.578 41.063l-2.174 9.647c.725 35.796 17.809 51.022 39.59 51.022" fill="#2196f3"/>
  </svg>
  <svg viewBox="0 0 200 200" width="200" height="200" x="13800">
    <path d="M98.041 152.385v-2.754c21.823.918 37.338-13.694 37.646-48.042l5.882-11.324c-2.269-34.008-20.714-42.781-43.366-39.582-20.383-2.908-37.531 6.154-37.531 41.1l-2.15 9.644c.716 35.752 17.772 50.958 39.519 50.958" fill="#2196f3"/>
  </svg>
  <svg viewBox="0 0 200 200" width="200" height="200" x="14000">
    <path d="M98.092 152.326v-2.694c21.765.898 37.236-13.697 37.537-47.98l5.754-11.297c-2.219-33.989-20.577-42.802-43.13-39.674-20.334-2.845-37.441 6.253-37.441 41.171l-2.103 9.638c.701 35.666 17.702 50.836 39.383 50.836" fill="#2196f3"/>
  </svg>
  <svg viewBox="0 0 200 200" width="200" height="200" x="14200">
    <path d="M98.164 152.242v-2.609c21.682.87 37.091-13.7 37.383-47.892l5.57-11.258c-2.148-33.961-20.379-42.833-42.792-39.804-20.265-2.754-37.313 6.393-37.313 41.272l-2.036 9.63c.679 35.543 17.601 50.661 39.188 50.661" fill="#2196f3"/>
  </svg>
  <svg viewBox="0 0 200 200" width="200" height="200" x="14400">
    <path d="M98.255 152.135v-2.5c21.577.833 36.908-13.706 37.188-47.78l5.338-11.209c-2.059-33.927-20.13-42.873-42.366-39.97-20.176-2.64-37.149 6.57-37.149 41.401l-1.952 9.618c.651 35.388 17.474 50.44 38.941 50.44" fill="#2196f3"/>
  </svg>
  <svg viewBox="0 0 200 200" width="200" height="200" x="14600">
    <path d="M98.363 152.009v-2.371c21.452.79 36.692-13.712 36.957-47.649l5.064-11.151c-1.953-33.885-19.836-42.919-41.861-40.165-20.072-2.504-36.958 6.78-36.958 41.552l-1.851 9.605c.617 35.205 17.324 50.179 38.649 50.179" fill="#2196f3"/>
  </svg>
  <svg viewBox="0 0 200 200" width="200" height="200" x="14800">
    <path d="M98.486 151.866v-2.226c21.311.742 36.446-13.719 36.695-47.499l4.753-11.086c-1.833-33.838-19.503-42.971-41.29-40.386-19.953-2.351-36.74 7.017-36.74 41.724l-1.737 9.589c.579 34.998 17.153 49.884 38.319 49.884" fill="#2196f3"/>
  </svg>
  <svg viewBox="0 0 200 200" width="200" height="200" x="15000">
    <path d="M98.62 151.71v-2.067c21.156.689 36.177-13.726 36.408-47.336l4.413-11.013c-1.702-33.787-19.137-43.03-40.664-40.63-19.824-2.182-36.501 7.279-36.501 41.912l-1.613 9.574c.537 34.77 16.966 49.56 37.957 49.56" fill="#2196f3"/>
  </svg>
  <svg viewBox="0 0 200 200" width="200" height="200" x="15200">
    <path d="M98.763 151.542v-1.896c20.992.632 35.89-13.734 36.102-47.161l4.049-10.937c-1.562-33.731-18.747-43.091-39.994-40.888-19.686-2.003-36.247 7.556-36.247 42.113l-1.48 9.556c.493 34.527 16.767 49.213 37.57 49.213" fill="#2196f3"/>
  </svg>
  <svg viewBox="0 0 200 200" width="200" height="200" x="15400">
    <path d="M98.914 151.367v-1.718c20.818.573 35.588-13.743 35.78-46.978l3.668-10.856c-1.415-33.674-18.338-43.155-39.293-41.16-19.541-1.814-35.98 7.848-35.98 42.324l-1.341 9.537c.447 34.273 16.558 48.851 37.166 48.851" fill="#2196f3"/>
  </svg>
  <svg viewBox="0 0 200 200" width="200" height="200" x="15600">
    <path d="M99.068 151.187v-1.534c20.64.511 35.278-13.752 35.45-46.79l3.276-10.773c-1.263-33.615-17.917-43.222-38.572-41.44-19.391-1.62-35.704 8.148-35.704 42.54l-1.198 9.519c.399 34.011 16.342 48.478 36.748 48.478" fill="#2196f3"/>
  </svg>
  <svg viewBox="0 0 200 200" width="200" height="200" x="15800">
    <path d="M99.225 151.004v-1.348c20.46.449 34.964-13.76 35.115-46.599l2.88-10.689c-1.111-33.555-17.492-43.289-37.843-41.723-19.24-1.424-35.426 8.452-35.426 42.76l-1.053 9.499c.351 33.747 16.125 48.1 36.327 48.1" fill="#2196f3"/>
  </svg>
  <svg viewBox="0 0 200 200" width="200" height="200" x="16000">
    <path d="M99.38 150.823v-1.164c20.281.388 34.653-13.769 34.783-46.409l2.484-10.606c-.958-33.495-17.067-43.355-37.115-42.004-19.09-1.229-35.149 8.754-35.149 42.978l-.909 9.48c.303 33.483 15.908 47.725 35.906 47.725" fill="#2196f3"/>
  </svg>
  <svg viewBox="0 0 200 200" width="200" height="200" x="16200">
    <path d="M99.533 150.644v-.982c20.105.328 34.346-13.777 34.456-46.223l2.097-10.524c-.809-33.436-16.651-43.421-36.403-42.28-18.942-1.037-34.877 9.051-34.877 43.192l-.767 9.462c.255 33.224 15.695 47.355 35.494 47.355" fill="#2196f3"/>
  </svg>
  <svg viewBox="0 0 200 200" width="200" height="200" x="16400">
    <path d="M99.68 150.473v-.807c19.935.269 34.051-13.786 34.141-46.045l1.724-10.444c-.664-33.381-16.25-43.485-35.715-42.547-18.801-.852-34.617 9.337-34.617 43.399l-.63 9.443c.21 32.975 15.49 47.001 35.097 47.001" fill="#2196f3"/>
  </svg>
  <svg viewBox="0 0 200 200" width="200" height="200" x="16600">
    <path d="M99.819 150.311v-.643c19.775.215 33.772-13.793 33.844-45.874l1.371-10.37c-.528-33.327-15.872-43.544-35.066-42.799-18.666-.678-34.37 9.607-34.37 43.594l-.501 9.427c.167 32.739 15.297 46.665 34.722 46.665" fill="#2196f3"/>
  </svg>
  <svg viewBox="0 0 200 200" width="200" height="200" x="16800">
    <path d="M99.948 150.161v-.49c19.627.163 33.514-13.801 33.569-45.718l1.045-10.301c-.403-33.278-15.522-43.599-34.467-43.031-18.542-.516-34.14 9.856-34.14 43.775l-.382 9.41c.127 32.522 15.117 46.355 34.375 46.355" fill="#2196f3"/>
  </svg>
  <svg viewBox="0 0 200 200" width="200" height="200" x="17000">
    <path d="M100.064 150.026v-.352c19.493.117 33.282-13.808 33.321-45.577l.752-10.24c-.29-33.233-15.207-43.648-33.927-43.239-18.43-.372-33.935 10.08-33.935 43.936L66 103.95c.092 32.326 14.957 46.076 34.064 46.076" fill="#2196f3"/>
  </svg>
  <svg viewBox="0 0 200 200" width="200" height="200" x="17200">
    <path d="M100.164 149.909v-.233c19.378.078 33.081-13.813 33.107-45.455l.498-10.186c-.192-33.195-14.934-43.691-33.46-43.421-18.333-.246-33.757 10.275-33.757 44.077l-.182 9.384c.061 32.157 14.817 45.834 33.794 45.834" fill="#2196f3"/>
  </svg>
  <svg viewBox="0 0 200 200" width="200" height="200" x="17400">
    <path d="M100.246 149.813v-.135c19.283.045 32.917-13.818 32.932-45.356l.289-10.141c-.111-33.163-14.71-43.727-33.076-43.569-18.254-.143-33.611 10.434-33.611 44.192l-.106 9.374c.035 32.017 14.703 45.635 33.572 45.635" fill="#2196f3"/>
  </svg>
  <svg viewBox="0 0 200 200" width="200" height="200" x="17600">
    <path d="M100.308 149.741v-.062c19.212.021 32.793-13.821 32.8-45.28l.132-10.108c-.051-33.14-14.542-43.754-32.788-43.681-18.195-.066-33.501 10.554-33.501 44.278l-.049 9.367c.017 31.912 14.617 45.486 33.406 45.486" fill="#2196f3"/>
  </svg>
  <svg viewBox="0 0 200 200" width="200" height="200" x="17800">
    <path d="M100.346 149.696v-.016c19.168.005 32.716-13.824 32.717-45.233l.035-10.087c-.014-33.125-14.437-43.77-32.607-43.752-18.157-.017-33.432 10.63-33.432 44.333l-.013 9.362c.004 31.847 14.563 45.393 33.3 45.393" fill="#2196f3"/>
  </svg>
  <svg viewBox="0 0 200 200" width="200" height="200" x="18000">
    <path d="M100.36 149.68c-18.72 0-33.264-13.536-33.264-45.36v-9.36c0-33.696 15.264-44.352 33.408-44.352 18.144 0 32.544 10.656 32.544 43.776v10.08c0 15.696-3.384 27-9.162 34.38-5.778 7.38-13.95 10.836-23.526 10.836" fill="#2196f3"/>
  </svg>
  <svg viewBox="0 0 200 200" width="200" height="200" x="18200">
    <path d="M100.352 149.696c-18.722 0-33.265-13.546-33.254-45.393l-.02-9.339c-.006-33.711 15.262-44.365 33.413-44.356 18.157-.017 32.567 10.63 32.567 43.757l-.013 10.082c.005 15.708-3.378 27.02-9.156 34.405-5.782 7.38-13.96 10.833-23.543 10.828l.006.016" fill="#2196f3"/>
  </svg>
  <svg viewBox="0 0 200 200" width="200" height="200" x="18400">
    <path d="M100.328 149.741c-18.727 0-33.268-13.574-33.223-45.486l-.077-9.278c-.026-33.754 15.255-44.403 33.424-44.367 18.195-.066 32.635 10.554 32.635 43.701l-.049 10.088c.016 15.74-3.361 27.075-9.139 34.476-5.794 7.38-13.989 10.825-23.591 10.804l.02.062" fill="#2196f3"/>
  </svg>
  <svg viewBox="0 0 200 200" width="200" height="200" x="18600">
    <path d="M100.291 149.813c-18.737 0-33.273-13.618-33.176-45.635l-.168-9.181c-.056-33.822 15.245-44.464 33.444-44.385 18.254-.143 32.741 10.434 32.741 43.612l-.105 10.098c.035 15.792-3.334 27.164-9.112 34.589-5.813 7.38-14.035 10.812-23.669 10.767l.045.135" fill="#2196f3"/>
  </svg>
  <svg viewBox="0 0 200 200" width="200" height="200" x="18800">
    <path d="M100.242 149.909c-18.75 0-33.28-13.677-33.114-45.834l-.288-9.051c-.096-33.913 15.232-44.545 33.469-44.41 18.334-.246 32.884 10.275 32.884 43.495l-.182 10.112c.061 15.86-3.298 27.282-9.076 34.739-5.838 7.379-14.095 10.794-23.771 10.716l.078.233" fill="#2196f3"/>
  </svg>
  <svg viewBox="0 0 200 200" width="200" height="200" x="19000">
    <path d="M100.182 150.026c-18.765 0-33.288-13.75-33.037-46.076l-.435-8.894c-.145-34.023 15.215-44.643 33.5-44.438 18.43-.372 33.057 10.08 33.057 43.351l-.275 10.128c.092 15.943-3.254 27.425-9.031 34.922-5.869 7.379-14.17 10.772-23.897 10.655l.118.352" fill="#2196f3"/>
  </svg>
  <svg viewBox="0 0 200 200" width="200" height="200" x="19200">
    <path d="M100.112 150.161c-18.782 0-33.296-13.833-32.948-46.355l-.605-8.713c-.201-34.15 15.196-44.756 33.536-44.472 18.542-.516 33.258 9.856 33.258 43.186l-.382 10.146c.127 16.04-3.204 27.592-8.981 35.134-5.905 7.379-14.256 10.747-24.042 10.584l.164.49" fill="#2196f3"/>
  </svg>
  <svg viewBox="0 0 200 200" width="200" height="200" x="19400">
    <path d="M100.035 150.311c-18.802 0-33.307-13.926-32.85-46.665l-.793-8.511c-.265-34.293 15.174-44.882 33.576-44.51 18.666-.678 33.48 9.607 33.48 43.002l-.501 10.167c.167 16.147-3.148 27.777-8.925 35.369-5.944 7.378-14.351 10.72-24.203 10.505l.216.643" fill="#2196f3"/>
  </svg>
  <svg viewBox="0 0 200 200" width="200" height="200" x="19600">
    <path d="M99.951 150.473c-18.822 0-33.318-14.026-32.743-47.001l-.997-8.292c-.333-34.446 15.151-45.019 33.619-44.55 18.8-.852 33.721 9.337 33.721 42.802l-.631 10.189c.21 16.264-3.086 27.977-8.863 35.624-5.987 7.378-14.454 10.69-24.377 10.421l.271.807" fill="#2196f3"/>
  </svg>
  <svg viewBox="0 0 200 200" width="200" height="200" x="19800">
    <path d="M99.863 150.644c-18.845 0-33.33-14.131-32.631-47.355l-1.213-8.061c-.405-34.609 15.127-45.163 33.664-44.593 18.943-1.037 33.976 9.051 33.976 42.591l-.766 10.213c.255 16.387-3.022 28.188-8.799 35.893-6.032 7.377-14.564 10.658-24.561 10.33l.33.982" fill="#2196f3"/>
  </svg>
  <svg viewBox="0 0 200 200" width="200" height="200" x="20000">
    <path d="M99.771 150.823c-18.868 0-33.342-14.242-32.514-47.725l-1.437-7.821C65.341 60.5 80.921 49.964 99.532 50.64c19.09-1.229 34.24 8.754 34.24 42.372l-.908 10.238c.303 16.514-2.955 28.407-8.731 36.172-6.079 7.377-14.677 10.625-24.753 10.237l.391 1.164" fill="#2196f3"/>
  </svg>
  <svg viewBox="0 0 200 200" width="200" height="200" x="20200">
    <path d="M99.677 151.004c-18.891 0-33.354-14.353-32.394-48.1l-1.666-7.577c-.555-34.948 15.075-45.465 33.76-44.682 19.241-1.424 34.511 8.452 34.511 42.149l-1.053 10.263c.351 16.644-2.887 28.631-8.663 36.457-6.127 7.376-14.793 10.591-24.947 10.142l.452 1.348" fill="#2196f3"/>
  </svg>
  <svg viewBox="0 0 200 200" width="200" height="200" x="20400">
    <path d="M99.583 151.187c-18.915 0-33.366-14.467-32.274-48.478l-1.896-7.331c-.632-35.121 15.05-45.619 33.809-44.728 19.391-1.62 34.781 8.148 34.781 41.925l-1.198 10.288c.4 16.775-2.818 28.856-8.594 36.743-6.175 7.376-14.909 10.558-25.143 10.047l.515 1.534" fill="#2196f3"/>
  </svg>
  <svg viewBox="0 0 200 200" width="200" height="200" x="20600">
    <path d="M99.49 151.367c-18.938 0-33.379-14.578-32.156-48.851l-2.122-7.088c-.708-35.292 15.024-45.771 33.857-44.773 19.54-1.814 35.049 7.848 35.049 41.703l-1.342 10.313c.447 16.904-2.75 29.078-8.526 37.026-6.222 7.375-15.023 10.525-25.336 9.952l.576 1.718" fill="#2196f3"/>
  </svg>
  <svg viewBox="0 0 200 200" width="200" height="200" x="20800">
    <path d="M99.4 151.542c-18.961 0-33.391-14.686-32.041-49.213l-2.343-6.852C64.235 60.019 80.015 49.559 98.92 50.66c19.685-2.003 35.309 7.556 35.309 41.488l-1.481 10.337c.494 17.029-2.684 29.294-8.46 37.301-6.269 7.375-15.135 10.492-25.525 9.86l.637 1.896" fill="#2196f3"/>
  </svg>
  <svg viewBox="0 0 200 200" width="200" height="200" x="21000">
    <path d="M99.313 151.71c-18.982 0-33.401-14.79-31.93-49.56l-2.554-6.627c-.851-35.616 14.975-46.059 33.948-44.859 19.824-2.182 35.558 7.279 35.558 41.283l-1.614 10.36c.538 17.149-2.621 29.5-8.397 37.563-6.313 7.375-15.241 10.462-25.704 9.773l.693 2.067" fill="#2196f3"/>
  </svg>
  <svg viewBox="0 0 200 200" width="200" height="200" x="21200">
    <path d="M99.233 151.866c-19.003 0-33.413-14.886-31.828-49.884l-2.75-6.416c-.917-35.764 14.952-46.19 33.989-44.897 19.954-2.351 35.79 7.017 35.79 41.09l-1.738 10.382c.579 17.261-2.563 29.692-8.338 37.808-6.354 7.374-15.341 10.433-25.872 9.691l.747 2.226" fill="#2196f3"/>
  </svg>
  <svg viewBox="0 0 200 200" width="200" height="200" x="21400">
    <path d="M99.159 152.009c-19.021 0-33.422-14.974-31.734-50.179l-2.93-6.224c-.976-35.899 14.933-46.31 34.028-44.933 20.071-2.504 36.001 6.78 36.001 40.915l-1.851 10.401c.617 17.364-2.509 29.869-8.284 38.033-6.392 7.373-15.432 10.406-26.026 9.616l.796 2.371" fill="#2196f3"/>
  </svg>
  <svg viewBox="0 0 200 200" width="200" height="200" x="21600">
    <path d="M99.094 152.135c-19.037 0-33.431-15.052-31.651-50.44l-3.089-6.054c-1.029-36.018 14.915-46.416 34.061-44.965 20.177-2.64 36.189 6.57 36.189 40.76l-1.951 10.419c.65 17.454-2.462 30.024-8.237 38.23-6.425 7.374-15.512 10.383-26.161 9.55l.839 2.5" fill="#2196f3"/>
  </svg>
  <svg viewBox="0 0 200 200" width="200" height="200" x="21800">
    <path d="M99.039 152.242c-19.051 0-33.438-15.118-31.581-50.661l-3.223-5.91c-1.074-36.12 14.899-46.507 34.09-44.992 20.264-2.754 36.347 6.393 36.347 40.629l-2.036 10.433c.678 17.531-2.422 30.156-8.197 38.398-6.453 7.373-15.58 10.364-26.275 9.494l.875 2.609" fill="#2196f3"/>
  </svg>
  <svg viewBox="0 0 200 200" width="200" height="200" x="22000">
    <path d="M98.995 152.326c-19.061 0-33.443-15.17-31.525-50.836l-3.329-5.796c-1.11-36.199 14.887-46.577 34.112-45.013 20.334-2.845 36.472 6.253 36.472 40.526l-2.103 10.445c.701 17.591-2.39 30.259-8.165 38.53-6.475 7.373-15.633 10.348-26.365 9.45l.903 2.694" fill="#2196f3"/>
  </svg>
  <svg viewBox="0 0 200 200" width="200" height="200" x="22200">
    <path d="M98.965 152.385c-19.069 0-33.448-15.206-31.487-50.958l-3.403-5.717c-1.134-36.255 14.879-46.626 34.128-45.027 20.383-2.908 36.56 6.154 36.56 40.453l-2.15 10.453c.716 17.633-2.368 30.332-8.143 38.623-6.491 7.372-15.671 10.337-26.429 9.419l.924 2.754" fill="#2196f3"/>
  </svg>
  <svg viewBox="0 0 200 200" width="200" height="200" x="22400">
    <path d="M98.949 152.416c-19.073 0-33.45-15.226-31.467-51.022l-3.442-5.675c-1.147-36.284 14.875-46.653 34.136-45.035 20.409-2.942 36.606 6.103 36.606 40.415l-2.174 10.457c.725 17.655-2.357 30.37-8.131 38.671-6.499 7.373-15.691 10.332-26.463 9.403l.935 2.786" fill="#2196f3"/>
  </svg>
  <svg viewBox="0 0 200 200" width="200" height="200" x="22600">
    <path d="M98.949 152.416c-19.073 0-33.45-15.226-31.467-51.022l-3.441-5.675c-1.148-36.284 14.874-46.653 34.136-45.035 20.408-2.942 36.605 6.103 36.605 40.415l-2.174 10.457c.725 17.655-2.357 30.37-8.131 38.671-6.499 7.373-15.691 10.332-26.462 9.403l.934 2.786" fill="#2196f3"/>
  </svg>
  <svg viewBox="0 0 200 200" width="200" height="200" x="22800">
    <path d="M98.967 152.382c-19.069 0-33.448-15.205-31.489-50.951l-3.399-5.722c-1.133-36.251 14.879-46.623 34.126-45.026 20.381-2.905 36.556 6.159 36.556 40.457l-2.148 10.453c.716 17.63-2.369 30.328-8.143 38.617-6.491 7.373-15.67 10.338-26.426 9.421l.923 2.751" fill="#2196f3"/>
  </svg>
  <svg viewBox="0 0 200 200" width="200" height="200" x="23000">
    <path d="M99.003 152.311c-19.06 0-33.442-15.161-31.535-50.804l-3.31-5.817c-1.104-36.185 14.889-46.565 34.108-45.009 20.322-2.829 36.45 6.277 36.45 40.544l-2.091 10.443c.697 17.58-2.396 30.241-8.171 38.506-6.471 7.373-15.624 10.351-26.35 9.458l.899 2.679" fill="#2196f3"/>
  </svg>
  <svg viewBox="0 0 200 200" width="200" height="200" x="23200">
    <path d="M99.06 152.2c-19.045 0-33.435-15.092-31.608-50.575l-3.171-5.966c-1.057-36.08 14.905-46.471 34.079-44.981 20.23-2.71 36.286 6.461 36.286 40.68l-2.004 10.427c.668 17.501-2.437 30.105-8.212 38.333-6.442 7.374-15.554 10.371-26.231 9.516l.861 2.566" fill="#2196f3"/>
  </svg>
  <svg viewBox="0 0 200 200" width="200" height="200" x="23400">
    <path d="M99.139 152.047c-19.026 0-33.425-14.998-31.709-50.259l-2.978-6.171c-.993-35.936 14.927-46.343 34.038-44.943 20.104-2.546 36.059 6.716 36.059 40.867l-1.882 10.407c.627 17.391-2.495 29.916-8.27 38.093-6.402 7.374-15.456 10.399-26.067 9.596l.809 2.41" fill="#2196f3"/>
  </svg>
  <svg viewBox="0 0 200 200" width="200" height="200" x="23600">
    <path d="M99.242 151.849c-19.001 0-33.412-14.875-31.84-49.848l-2.728-6.439c-.91-35.748 14.955-46.176 33.985-44.894 19.939-2.332 35.764 7.047 35.764 41.112l-1.724 10.379c.575 17.249-2.57 29.671-8.345 37.782-6.349 7.374-15.33 10.436-25.853 9.699l.741 2.209" fill="#2196f3"/>
  </svg>
  <svg viewBox="0 0 200 200" width="200" height="200" x="23800">
    <path d="M99.369 151.602c-18.968 0-33.395-14.723-32.002-49.337l-2.417-6.772c-.806-35.514 14.99-45.968 33.919-44.832 19.735-2.066 35.397 7.458 35.397 41.415l-1.527 10.345c.509 17.073-2.663 29.368-8.438 37.395-6.285 7.375-15.173 10.481-25.589 9.829l.657 1.957" fill="#2196f3"/>
  </svg>
  <svg viewBox="0 0 200 200" width="200" height="200" x="24000">
    <path d="M99.523 151.304c-18.93 0-33.375-14.539-32.198-48.72l-2.042-7.174c-.681-35.232 15.033-45.717 33.84-44.757 19.488-1.746 34.954 7.954 34.954 41.781l-1.29 10.304c.43 16.859-2.775 29-8.55 36.927-6.206 7.376-14.984 10.536-25.269 9.985l.555 1.654" fill="#2196f3"/>
  </svg>
  <svg viewBox="0 0 200 200" width="200" height="200" x="24200">
    <path d="M99.704 150.951c-18.884 0-33.35-14.321-32.428-47.991l-1.6-7.647c-.533-34.899 15.083-45.421 33.746-44.67 19.197-1.367 34.432 8.54 34.432 42.214l-1.011 10.256c.337 16.606-2.906 28.566-8.682 36.374-6.114 7.376-14.76 10.601-24.891 10.17l.434 1.294" fill="#2196f3"/>
  </svg>
  <svg viewBox="0 0 200 200" width="200" height="200" x="24400">
    <path d="M99.915 150.542c-18.831 0-33.322-14.068-32.697-47.144l-1.085-8.199c-.361-34.511 15.141-45.077 33.638-44.567 18.857-.927 33.824 9.221 33.824 42.717l-.686 10.199c.229 16.313-3.06 28.062-8.837 35.732-6.005 7.378-14.498 10.677-24.451 10.384l.294.878" fill="#2196f3"/>
  </svg>
  <svg viewBox="0 0 200 200" width="200" height="200" x="24600">
    <path d="M100.157 150.073c-18.77 0-33.29-13.779-33.006-46.173l-.494-8.831c-.165-34.068 15.208-44.682 33.513-44.45 18.469-.423 33.127 10.002 33.127 43.293l-.312 10.134c.104 15.978-3.237 27.484-9.014 34.997-5.882 7.379-14.2 10.763-23.948 10.63l.134.4" fill="#2196f3"/>
  </svg>
  <svg viewBox="0 0 200 200" width="200" height="200" x="24800">
    <path d="M100.432 149.541c-18.702 0-33.255-13.45-33.356-45.072l.175-9.548c.059-33.564 15.284-44.235 33.371-44.317 18.029.15 32.338 10.888 32.338 43.947l.11 10.061c-.036 15.596-3.436 26.829-9.214 34.162-5.741 7.38-13.862 10.861-23.377 10.909l-.047-.142" fill="#2196f3"/>
  </svg>
  <svg viewBox="0 0 200 200" width="200" height="200" x="25000">
    <path d="M100.74 148.943c-18.625 0-33.214-13.081-33.748-43.835l.927-10.352c.309-32.999 15.369-43.733 33.212-44.168 17.534.792 31.45 11.882 31.45 44.681l.586 9.978c-.196 15.168-3.661 26.093-9.44 33.224-5.584 7.383-13.481 10.972-22.735 11.222l-.252-.75" fill="#2196f3"/>
  </svg>
  <svg viewBox="0 0 200 200" width="200" height="200" x="25200">
    <path d="M101.083 148.277c-18.538 0-33.168-12.67-34.185-42.457l1.765-11.249c.588-32.369 15.463-43.172 33.034-44.002 16.983 1.508 30.462 12.991 30.462 45.499l1.115 9.887c-.372 14.691-3.911 25.272-9.691 32.18-5.408 7.383-13.057 11.094-22.02 11.571l-.48-1.429" fill="#2196f3"/>
  </svg>
  <svg viewBox="0 0 200 200" width="200" height="200" x="25400">
    <path d="M101.464 147.539c-18.444 0-33.119-12.214-34.67-40.93l2.693-12.243c.897-31.671 15.568-42.552 32.838-43.817 16.372 2.301 29.366 14.218 29.366 46.405l1.702 9.785c-.568 14.163-4.188 24.363-9.969 31.023-5.214 7.385-12.588 11.231-21.229 11.957l-.731-2.18" fill="#2196f3"/>
  </svg>
  <svg viewBox="0 0 200 200" width="200" height="200" x="25600">
    <path d="M101.883 146.728c-18.339 0-33.064-11.713-35.204-39.251l3.714-13.336c1.238-30.903 15.685-41.869 32.623-43.615 15.7 3.175 28.16 15.57 28.16 47.403l2.347 9.673c-.782 13.582-4.493 23.363-10.275 29.749-4.999 7.388-12.071 11.381-20.357 12.383l-1.008-3.006" fill="#2196f3"/>
  </svg>
  <svg viewBox="0 0 200 200" width="200" height="200" x="25800">
    <path d="M102.341 145.838c-18.224 0-33.003-11.163-35.788-37.41l4.833-14.534c1.611-30.061 15.811-41.121 32.386-43.393 14.964 4.131 26.841 17.05 26.841 48.496l3.053 9.55c-1.018 12.945-4.826 22.268-10.61 28.354-4.765 7.391-11.505 11.545-19.403 12.849l-1.312-3.912" fill="#2196f3"/>
  </svg>
  <svg viewBox="0 0 200 200" width="200" height="200" x="26000">
    <path d="M102.841 144.869c-18.098 0-32.937-10.565-36.425-35.404l6.053-15.839c2.017-29.145 15.949-40.307 32.128-43.151 14.162 5.172 25.401 18.662 25.401 49.686l3.824 9.416c-1.274 12.251-5.19 21.074-10.975 26.834-4.51 7.393-10.888 11.724-18.363 13.357l-1.643-4.899" fill="#2196f3"/>
  </svg>
  <svg viewBox="0 0 200 200" width="200" height="200" x="26200">
    <path d="M103.384 143.817c-17.963 0-32.866-9.916-37.116-33.227l7.376-17.256c2.459-28.15 16.099-39.422 31.848-42.889 13.291 6.304 23.839 20.414 23.839 50.979l4.661 9.271c-1.554 11.498-5.586 19.778-11.372 25.184-4.233 7.396-10.219 11.918-17.233 13.908l-2.003-5.97" fill="#2196f3"/>
  </svg>
  <svg viewBox="0 0 200 200" width="200" height="200" x="26400">
    <path d="M103.971 142.679c-17.816 0-32.789-9.213-37.864-30.872l8.808-18.789c2.936-27.073 16.261-38.465 31.545-42.604 12.349 7.528 22.15 22.308 22.15 52.377l5.565 9.114c-1.855 10.682-6.013 18.376-11.801 23.399-3.933 7.399-9.494 12.127-16.012 14.504l-2.391-7.129" fill="#2196f3"/>
  </svg>
  <svg viewBox="0 0 200 200" width="200" height="200" x="26600">
    <path d="M104.603 141.452c-17.657 0-32.705-8.455-38.669-28.333l10.351-20.441c3.451-25.912 16.435-37.433 31.219-42.298 11.333 8.847 20.328 24.35 20.328 53.884l6.54 8.945c-2.18 9.804-6.474 16.865-12.263 21.474-3.609 7.403-8.713 12.354-14.695 15.147l-2.811-8.378" fill="#2196f3"/>
  </svg>
  <svg viewBox="0 0 200 200" width="200" height="200" x="26800">
    <path d="M105.283 140.133c-17.486 0-32.616-7.641-39.535-25.604l12.01-22.217c4.003-24.665 16.623-36.324 30.868-41.969 10.242 10.265 18.37 26.544 18.37 55.504l7.589 8.763c-2.53 8.86-6.97 15.241-12.761 19.407-3.261 7.406-7.874 12.597-13.279 15.837l-3.262-9.721" fill="#2196f3"/>
  </svg>
  <svg viewBox="0 0 200 200" width="200" height="200" x="27000">
    <path d="M106.012 138.72c-17.304 0-32.52-6.768-40.464-22.68l13.788-24.12c4.596-23.328 16.824-35.136 30.492-41.616C118.9 62.088 126.1 79.2 126.1 107.544l8.712 8.568c-2.904 7.848-7.5 13.5-13.293 17.19-2.889 7.41-6.975 12.858-11.763 16.578l-3.744-11.16" fill="#2196f3"/>
  </svg>
  <svg viewBox="0 0 200 200" width="200" height="200" x="27200">
    <path d="M106.741 137.307c-17.122 0-32.424-5.895-41.393-19.756l15.566-26.023c5.189-21.991 17.025-33.948 30.116-41.263 7.902 13.303 14.174 31.248 14.174 58.976l9.835 8.373c-3.278 6.836-8.03 11.759-13.825 14.973-2.517 7.414-6.076 13.119-10.247 17.319l-4.226-12.599" fill="#2196f3"/>
  </svg>
  <svg viewBox="0 0 200 200" width="200" height="200" x="27400">
    <path d="M107.421 135.988c-16.951 0-32.335-5.081-42.259-17.027l17.225-27.799c5.741-20.744 17.213-32.839 29.765-40.934 6.811 14.721 12.216 33.442 12.216 60.596l10.884 8.191c-3.628 5.892-8.526 10.135-14.323 12.906-2.169 7.417-5.237 13.362-8.831 18.009l-4.677-13.942" fill="#2196f3"/>
  </svg>
  <svg viewBox="0 0 200 200" width="200" height="200" x="27600">
    <path d="M108.053 134.761c-16.792 0-32.251-4.323-43.064-14.488l18.768-29.451c6.256-19.583 17.387-31.807 29.439-40.628 5.795 16.04 10.394 35.484 10.394 62.103l11.859 8.022c-3.953 5.014-8.987 8.624-14.785 10.981-1.845 7.421-4.456 13.589-7.514 18.652l-5.097-15.191" fill="#2196f3"/>
  </svg>
  <svg viewBox="0 0 200 200" width="200" height="200" x="27800">
    <path d="M108.64 133.623c-16.645 0-32.174-3.62-43.812-12.133l20.2-30.984c6.733-18.506 17.549-30.85 29.136-40.343 4.853 17.264 8.705 37.378 8.705 63.501l12.763 7.865c-4.254 4.198-9.414 7.222-15.214 9.196-1.545 7.424-3.731 13.798-6.293 19.248l-5.485-16.35" fill="#2196f3"/>
  </svg>
  <svg viewBox="0 0 200 200" width="200" height="200" x="28000">
    <path d="M109.183 132.571c-16.51 0-32.103-2.971-44.503-9.956l21.523-32.401c7.175-17.511 17.699-29.965 28.856-40.081 3.982 18.396 7.143 39.13 7.143 64.794l13.6 7.72c-4.534 3.445-9.81 5.926-15.611 7.546-1.268 7.427-3.062 13.992-5.163 19.799l-5.845-17.421" fill="#2196f3"/>
  </svg>
  <svg viewBox="0 0 200 200" width="200" height="200" x="28200">
    <path d="M109.683 131.602c-16.384 0-32.037-2.373-45.14-7.95l22.743-33.706c7.581-16.595 17.837-29.151 28.598-39.839 3.18 19.437 5.703 40.742 5.703 65.984l14.371 7.586c-4.79 2.751-10.174 4.732-15.976 6.026-1.013 7.429-2.445 14.171-4.123 20.307l-6.176-18.408" fill="#2196f3"/>
  </svg>
  <svg viewBox="0 0 200 200" width="200" height="200" x="28400">
    <path d="M110.141 130.712c-16.269 0-31.976-1.823-45.724-6.109l23.862-34.904c7.954-15.753 17.963-28.403 28.361-39.617 2.444 20.393 4.384 42.222 4.384 67.077l15.077 7.463c-5.026 2.114-10.507 3.637-16.311 4.631-.779 7.432-1.879 14.335-3.169 20.773l-6.48-19.314" fill="#2196f3"/>
  </svg>
  <svg viewBox="0 0 200 200" width="200" height="200" x="28600">
    <path d="M110.56 129.901c-16.164 0-31.921-1.322-46.258-4.43l24.883-35.997c8.295-14.985 18.08-27.72 28.146-39.415 1.772 21.267 3.178 43.574 3.178 68.075l15.722 7.351c-5.24 1.533-10.812 2.637-16.617 3.357-.564 7.435-1.362 14.485-2.297 21.199l-6.757-20.14" fill="#2196f3"/>
  </svg>
  <svg viewBox="0 0 200 200" width="200" height="200" x="28800">
    <path d="M110.941 129.163c-16.07 0-31.872-.866-46.743-2.903l25.811-36.991c8.604-14.287 18.185-27.1 27.95-39.23 1.161 22.06 2.082 44.801 2.082 68.981l16.309 7.249c-5.436 1.005-11.089 1.728-16.895 2.2-.37 7.437-.893 14.622-1.506 21.585l-7.008-20.891" fill="#2196f3"/>
  </svg>
  <svg viewBox="0 0 200 200" width="200" height="200" x="29000">
    <path d="M111.284 128.497c-15.983 0-31.826-.455-47.18-1.525l26.649-37.888c8.883-13.657 18.279-26.539 27.772-39.064.61 22.776 1.094 45.91 1.094 69.799l16.838 7.158c-5.612.528-11.339.907-17.146 1.156-.194 7.437-.469 14.744-.791 21.934l-7.236-21.57" fill="#2196f3"/>
  </svg>
  <svg viewBox="0 0 200 200" width="200" height="200" x="29200">
    <path d="M111.592 127.899c-15.906 0-31.785-.086-47.572-.288l27.401-38.692c9.133-13.092 18.364-26.037 27.613-38.915.115 23.418.206 46.904.206 70.533l17.314 7.075c-5.772.1-11.564.171-17.372.218-.037 7.44-.088 14.855-.149 22.247l-7.441-22.178" fill="#2196f3"/>
  </svg>
  <svg viewBox="0 0 200 200" width="200" height="200" x="29400">
    <path d="M111.867 127.367c-15.838 0-31.75.243-47.922.813l28.07-39.409c9.357-12.588 18.44-25.59 27.471-38.782-.325 23.991-.583 47.79-.583 71.187l17.736 7.002c-5.912-.282-11.763-.484-17.572-.617.104 7.441.25 14.953.422 22.526l-7.622-22.72" fill="#2196f3"/>
  </svg>
  <svg viewBox="0 0 200 200" width="200" height="200" x="29600">
    <path d="M112.109 126.898c-15.777 0-31.718.532-48.231 1.784l28.661-40.041c9.553-12.145 18.507-25.195 27.346-38.665-.713 24.495-1.28 48.571-1.28 71.763l18.11 6.937c-6.037-.617-11.94-1.062-17.749-1.352.227 7.442.548 15.039.925 22.772l-7.782-23.198" fill="#2196f3"/>
  </svg>
  <svg viewBox="0 0 200 200" width="200" height="200" x="29800">
    <path d="M112.32 126.489c-15.724 0-31.69.785-48.5 2.631l29.176-40.593c9.725-11.757 18.565-24.851 27.238-38.562-1.053 24.935-1.888 49.252-1.888 72.266l18.435 6.88c-6.145-.91-12.094-1.566-17.904-1.994.336 7.444.81 15.115 1.365 22.986l-7.922-23.614" fill="#2196f3"/>
  </svg>
  <svg viewBox="0 0 200 200" width="200" height="200" x="30000">
    <path d="M112.501 126.136c-15.678 0-31.665 1.003-48.73 3.36L93.389 88.43c9.873-11.424 18.615-24.555 27.144-38.475-1.344 25.314-2.41 49.838-2.41 72.699l18.714 6.832c-6.238-1.163-12.225-2-18.036-2.547.428 7.444 1.034 15.18 1.743 23.171l-8.043-23.974" fill="#2196f3"/>
  </svg>
  <svg viewBox="0 0 200 200" width="200" height="200" x="30200">
    <path d="M112.655 125.838c-15.64 0-31.645 1.187-48.926 3.977l29.993-41.468c9.998-11.142 18.658-24.304 27.065-38.4-1.591 25.634-2.853 50.334-2.853 73.065l18.951 6.791c-6.317-1.377-12.337-2.368-18.148-3.015.507 7.445 1.223 15.235 2.063 23.327l-8.145-24.277" fill="#2196f3"/>
  </svg>
  <svg viewBox="0 0 200 200" width="200" height="200" x="30400">
    <path d="M112.782 125.591c-15.607 0-31.628 1.339-49.088 4.488l30.304-41.801C104.1 77.37 112.691 64.182 120.997 49.94c-1.795 25.9-3.22 50.745-3.22 73.368l19.148 6.757c-6.383-1.553-12.43-2.671-18.241-3.402.571 7.446 1.38 15.28 2.327 23.457l-8.229-24.529" fill="#2196f3"/>
  </svg>
  <svg viewBox="0 0 200 200" width="200" height="200" x="30600">
    <path d="M112.885 125.393c-15.582 0-31.615 1.462-49.219 4.899L94.22 88.223c10.185-10.72 18.721-23.929 26.946-38.289-1.96 26.114-3.515 51.076-3.515 73.613l19.306 6.729c-6.435-1.695-12.505-2.916-18.316-3.713.624 7.446 1.506 15.317 2.541 23.56l-8.297-24.73" fill="#2196f3"/>
  </svg>
  <svg viewBox="0 0 200 200" width="200" height="200" x="30800">
    <path d="M112.964 125.24c-15.563 0-31.605 1.556-49.32 5.215l30.747-42.274c10.249-10.576 18.743-23.801 26.905-38.251-2.086 26.278-3.742 51.331-3.742 73.8l19.428 6.709c-6.476-1.805-12.563-3.105-18.374-3.953.664 7.446 1.604 15.345 2.705 23.64l-8.349-24.886" fill="#2196f3"/>
  </svg>
  <svg viewBox="0 0 200 200" width="200" height="200" x="31000">
    <path d="M113.021 125.129c-15.548 0-31.598 1.625-49.393 5.444L94.514 88.15c10.296-10.471 18.759-23.707 26.876-38.223-2.178 26.397-3.906 51.515-3.906 73.936l19.515 6.693c-6.505-1.884-12.604-3.241-18.415-4.126.693 7.447 1.674 15.365 2.824 23.698l-8.387-24.999" fill="#2196f3"/>
  </svg>
  <svg viewBox="0 0 200 200" width="200" height="200" x="31200">
    <path d="M113.057 125.058c-15.539 0-31.592 1.669-49.439 5.591l30.975-42.518c10.325-10.405 18.769-23.649 26.858-38.206-2.237 26.473-4.012 51.633-4.012 74.023l19.572 6.683c-6.524-1.934-12.631-3.328-18.443-4.237.713 7.447 1.72 15.378 2.9 23.735l-8.411-25.071" fill="#2196f3"/>
  </svg>
  <svg viewBox="0 0 200 200" width="200" height="200" x="31400">
    <path d="M113.075 125.024c-15.535 0-31.59 1.69-49.461 5.662l31.017-42.565c10.34-10.372 18.774-23.619 26.848-38.197-2.264 26.51-4.061 51.689-4.061 74.065l19.598 6.679c-6.533-1.959-12.643-3.37-18.455-4.291.721 7.447 1.741 15.384 2.936 23.753l-8.422-25.106" fill="#2196f3"/>
  </svg>
  <svg viewBox="0 0 200 200" width="200" height="200" x="31600">
    <path d="M113.075 125.024c-15.535 0-31.59 1.69-49.461 5.662l31.018-42.565c10.339-10.372 18.773-23.619 26.848-38.197-2.265 26.51-4.062 51.689-4.062 74.065l19.598 6.679c-6.533-1.959-12.643-3.37-18.455-4.291.721 7.447 1.741 15.384 2.937 23.753l-8.423-25.106" fill="#2196f3"/>
  </svg>
  <svg viewBox="0 0 200 200" width="200" height="200" x="31800">
    <path d="M113.059 125.055c-15.539 0-31.592 1.67-49.441 5.598L94.597 88.13c10.326-10.401 18.769-23.646 26.856-38.205-2.239 26.476-4.016 51.638-4.016 74.027l19.574 6.683c-6.524-1.937-12.632-3.332-18.443-4.243.713 7.448 1.721 15.379 2.903 23.737l-8.412-25.074" fill="#2196f3"/>
  </svg>
  <svg viewBox="0 0 200 200" width="200" height="200" x="32000">
    <path d="M113.029 125.114c-15.547 0-31.597 1.634-49.403 5.476l30.905-42.444c10.302-10.457 18.761-23.695 26.872-38.219-2.19 26.413-3.928 51.539-3.928 73.954l19.527 6.691c-6.509-1.895-12.61-3.259-18.421-4.15.697 7.447 1.683 15.368 2.839 23.706l-8.391-25.014" fill="#2196f3"/>
  </svg>
  <svg viewBox="0 0 200 200" width="200" height="200" x="32200">
    <path d="M112.985 125.198c-15.557 0-31.602 1.582-49.347 5.301l30.799-42.33c10.266-10.536 18.749-23.765 26.894-38.24-2.12 26.322-3.803 51.399-3.803 73.851l19.46 6.703c-6.486-1.835-12.578-3.156-18.389-4.018.675 7.447 1.63 15.352 2.749 23.662l-8.363-24.929" fill="#2196f3"/>
  </svg>
  <svg viewBox="0 0 200 200" width="200" height="200" x="32400">
    <path d="M112.93 125.305c-15.571 0-31.609 1.516-49.277 5.08l30.665-42.186c10.221-10.638 18.733-23.856 26.923-38.267-2.033 26.208-3.645 51.222-3.645 73.72l19.375 6.717c-6.458-1.758-12.538-3.024-18.349-3.85.647 7.446 1.562 15.333 2.635 23.606l-8.327-24.82" fill="#2196f3"/>
  </svg>
  <svg viewBox="0 0 200 200" width="200" height="200" x="32600">
    <path d="M112.865 125.431c-15.587 0-31.618 1.438-49.194 4.819l30.506-42.016c10.168-10.757 18.715-23.962 26.956-38.299-1.927 26.072-3.457 51.012-3.457 73.565l19.275 6.735c-6.425-1.668-12.491-2.869-18.302-3.653.614 7.447 1.482 15.31 2.5 23.54l-8.284-24.691" fill="#2196f3"/>
  </svg>
  <svg viewBox="0 0 200 200" width="200" height="200" x="32800">
    <path d="M112.791 125.574c-15.605 0-31.627 1.35-49.1 4.524l30.326-41.824c10.109-10.892 18.696-24.082 26.995-38.335-1.81 25.919-3.246 50.775-3.246 73.39l19.162 6.754c-6.387-1.565-12.437-2.692-18.248-3.428.576 7.446 1.391 15.283 2.346 23.465l-8.235-24.546" fill="#2196f3"/>
  </svg>
  <svg viewBox="0 0 200 200" width="200" height="200" x="33000">
    <path d="M112.711 125.73c-15.626 0-31.639 1.254-48.998 4.2l30.13-41.613c10.043-11.04 18.673-24.213 27.036-38.373-1.68 25.75-3.014 50.513-3.014 73.197l19.038 6.776c-6.346-1.453-12.379-2.5-18.189-3.183.535 7.445 1.291 15.254 2.178 23.383l-8.181-24.387" fill="#2196f3"/>
  </svg>
  <svg viewBox="0 0 200 200" width="200" height="200" x="33200">
    <path d="M112.624 125.898c-15.647 0-31.649 1.15-48.887 3.853l29.919-41.388c9.973-11.198 18.649-24.354 27.08-38.415-1.541 25.571-2.765 50.236-2.765 72.992l18.905 6.799c-6.302-1.333-12.316-2.294-18.126-2.921.491 7.445 1.185 15.224 1.999 23.296l-8.125-24.216" fill="#2196f3"/>
  </svg>
  <svg viewBox="0 0 200 200" width="200" height="200" x="33400">
    <path d="M112.534 126.073c-15.67 0-31.661 1.042-48.772 3.491L93.46 88.412c9.9-11.364 18.624-24.501 27.127-38.459-1.396 25.382-2.505 49.944-2.505 72.777l18.766 6.823c-6.255-1.208-12.25-2.078-18.06-2.646.444 7.445 1.073 15.191 1.81 23.204l-8.064-24.038" fill="#2196f3"/>
  </svg>
  <svg viewBox="0 0 200 200" width="200" height="200" x="33600">
    <path d="M112.441 126.253c-15.693 0-31.674.931-48.654 3.118l29.472-40.909c9.824-11.535 18.598-24.653 27.175-38.504-1.247 25.188-2.237 49.644-2.237 72.555l18.622 6.848c-6.208-1.079-12.182-1.856-17.992-2.363.397 7.444.959 15.158 1.617 23.109l-8.003-23.854" fill="#2196f3"/>
  </svg>
  <svg viewBox="0 0 200 200" width="200" height="200" x="33800">
    <path d="M112.347 126.436c-15.717 0-31.686.817-48.534 2.74l29.242-40.663c9.747-11.708 18.573-24.807 27.224-38.55-1.097 24.992-1.967 49.34-1.967 72.331l18.477 6.873c-6.159-.948-12.113-1.631-17.923-2.077.349 7.444.843 15.125 1.421 23.014l-7.94-23.668" fill="#2196f3"/>
  </svg>
  <svg viewBox="0 0 200 200" width="200" height="200" x="34000">
    <path d="M112.253 126.617c-15.74 0-31.698.706-48.414 2.365l29.013-40.419c9.671-11.879 18.547-24.959 27.272-38.595-.946 24.797-1.696 49.038-1.696 72.108l18.332 6.898c-6.111-.818-12.045-1.407-17.855-1.792.301 7.443.727 15.091 1.227 22.919l-7.879-23.484" fill="#2196f3"/>
  </svg>
  <svg viewBox="0 0 200 200" width="200" height="200" x="34200">
    <path d="M112.161 126.796c-15.763 0-31.71.595-48.297 1.995l28.789-40.179c9.597-12.047 18.521-25.109 27.32-38.639-.799 24.605-1.432 48.741-1.432 71.889l18.19 6.923c-6.063-.691-11.978-1.188-17.787-1.513.254 7.443.614 15.058 1.035 22.826l-7.818-23.302" fill="#2196f3"/>
  </svg>
  <svg viewBox="0 0 200 200" width="200" height="200" x="34400">
    <path d="M112.073 126.967c-15.786 0-31.722.49-48.185 1.641L92.461 88.66c9.525-12.21 18.497-25.253 27.365-38.682-.656 24.42-1.177 48.455-1.177 71.678l18.055 6.947c-6.018-.568-11.914-.977-17.723-1.244.209 7.442.504 15.026.851 22.735l-7.759-23.127" fill="#2196f3"/>
  </svg>
  <svg viewBox="0 0 200 200" width="200" height="200" x="34600">
    <path d="M111.989 127.129c-15.806 0-31.733.39-48.078 1.305L92.28 88.705c9.457-12.363 18.474-25.39 27.408-38.722-.522 24.246-.936 48.185-.936 71.478l17.925 6.969c-5.975-.451-11.852-.777-17.661-.989.166 7.442.401 14.996.677 22.651l-7.704-22.963" fill="#2196f3"/>
  </svg>
  <svg viewBox="0 0 200 200" width="200" height="200" x="34800">
    <path d="M111.912 127.279c-15.826 0-31.744.297-47.98.995l28.181-39.527c9.393-12.506 18.452-25.516 27.448-38.76-.398 24.084-.714 47.936-.714 71.294l17.806 6.99c-5.935-.344-11.796-.592-17.605-.754.127 7.441.306 14.969.516 22.572l-7.652-22.81" fill="#2196f3"/>
  </svg>
  <svg viewBox="0 0 200 200" width="200" height="200" x="35000">
    <path d="M111.842 127.414c-15.843 0-31.752.214-47.891.716l28.011-39.346c9.337-12.633 18.433-25.629 27.484-38.794-.286 23.94-.513 47.712-.513 71.129l17.699 7.008c-5.9-.247-11.746-.425-17.555-.542.091 7.441.22 14.944.371 22.501l-7.606-22.672" fill="#2196f3"/>
  </svg>
  <svg viewBox="0 0 200 200" width="200" height="200" x="35200">
    <path d="M111.782 127.531c-15.858 0-31.76.141-47.814.474l27.864-39.189c9.288-12.743 18.416-25.727 27.515-38.822-.19 23.814-.34 47.517-.34 70.985l17.606 7.024c-5.869-.164-11.702-.282-17.51-.359.06 7.441.145 14.922.245 22.44l-7.566-22.553" fill="#2196f3"/>
  </svg>
  <svg viewBox="0 0 200 200" width="200" height="200" x="35400">
    <path d="M111.733 127.627c-15.871 0-31.767.082-47.752.275l27.744-39.059c9.248-12.834 18.403-25.808 27.54-38.847-.11 23.711-.197 47.358-.197 70.868l17.529 7.038c-5.843-.096-11.666-.164-17.474-.209.035 7.44.085 14.904.143 22.389l-7.533-22.455" fill="#2196f3"/>
  </svg>
  <svg viewBox="0 0 200 200" width="200" height="200" x="35600">
    <path d="M111.696 127.699c-15.881 0-31.772.038-47.705.126l27.653-38.962c9.218-12.902 18.393-25.869 27.56-38.865-.051 23.634-.091 47.238-.091 70.779l17.473 7.048c-5.824-.044-11.639-.075-17.447-.096.016 7.44.039 14.891.065 22.352l-7.508-22.382" fill="#2196f3"/>
  </svg>
  <svg viewBox="0 0 200 200" width="200" height="200" x="35800">
    <path d="M111.672 127.744c-15.886 0-31.775.01-47.674.033l27.596-38.901C100.792 75.931 109.98 62.969 119.165 50c-.013 23.585-.023 47.162-.023 70.723l17.437 7.054c-5.813-.012-11.622-.02-17.43-.025.004 7.44.01 14.883.017 22.328l-7.494-22.336" fill="#2196f3"/>
  </svg>
  <svg viewBox="0 0 200 200" width="200" height="200" x="36000">
    <path d="M111.664 127.76H64l27.576-38.88L119.152 50v70.704l17.424 7.056h-17.424v22.32l-7.488-22.32" fill="#2196f3"/>
  </svg>
</svg>
